<svg version="1.1" viewBox="0.0 0.0 960.0 540.0" fill="none" stroke="none" stroke-linecap="square" stroke-miterlimit="10" xmlns:xlink="http://www.w3.org/1999/xlink" xmlns="http://www.w3.org/2000/svg"><clipPath id="g2584d796cea_0_20.0"><path d="m0 0l960.0 0l0 540.0l-960.0 0l0 -540.0z" clip-rule="nonzero"/></clipPath><g clip-path="url(#g2584d796cea_0_20.0)"><path fill="#000000" fill-opacity="0.0" d="m0 0l960.0 0l0 540.0l-960.0 0z" fill-rule="evenodd"/><path fill="#000000" fill-opacity="0.0" d="m64.42257 221.50131l810.7402 0" fill-rule="evenodd"/><path stroke="#ce0033" stroke-width="2.0" stroke-linejoin="round" stroke-linecap="butt" d="m64.42257 221.50131l798.7402 0" fill-rule="evenodd"/><path fill="#ce0033" stroke="#ce0033" stroke-width="2.0" stroke-linecap="butt" d="m863.1627 224.80478l9.076233 -3.3034668l-9.076233 -3.3034668z" fill-rule="evenodd"/><path fill="#ffffff" d="m112.42257 131.4252l0 0c0 -6.957924 5.6405106 -12.598427 12.598427 -12.598427l7.8740234 0l0 0l30.708649 0l59.05513 0c3.3413086 0 6.545761 1.3273239 8.908432 3.6899872c2.3626556 2.3626633 3.6899872 5.567131 3.6899872 8.90844l0 31.496063l0 0l0 18.897629l0 0c0 6.9579163 -5.640503 12.598434 -12.598419 12.598434l-59.05513 0l-13.195709 25.207932l-17.51294 -25.207932l-7.8740234 0c-6.9579163 0 -12.598427 -5.640518 -12.598427 -12.598434l0 0l0 -18.897629l0 0z" fill-rule="evenodd"/><path stroke="#595959" stroke-width="1.0" stroke-linejoin="round" stroke-linecap="butt" d="m112.42257 131.4252l0 0c0 -6.957924 5.6405106 -12.598427 12.598427 -12.598427l7.8740234 0l0 0l30.708649 0l59.05513 0c3.3413086 0 6.545761 1.3273239 8.908432 3.6899872c2.3626556 2.3626633 3.6899872 5.567131 3.6899872 8.90844l0 31.496063l0 0l0 18.897629l0 0c0 6.9579163 -5.640503 12.598434 -12.598419 12.598434l-59.05513 0l-13.195709 25.207932l-17.51294 -25.207932l-7.8740234 0c-6.9579163 0 -12.598427 -5.640518 -12.598427 -12.598434l0 0l0 -18.897629l0 0z" fill-rule="evenodd"/><path fill="#000000" d="m146.91411 162.48204l-1.390625 0l0 -9.640625l-2.390625 1.078125l0 -1.3125l3.5625 -1.5625l0.21875 0l0 11.4375zm10.125 -4.25l-3.21875 0l0 -1.171875l3.21875 0l0 1.171875zm12.6953125 4.25l-1.4375 0l-4.546875 -8.765625l0 8.765625l-1.4375 0l0 -11.375l1.4375 0l4.5625 8.796875l0 -8.796875l1.421875 0l0 11.375zm6.640625 0q-0.125 -0.28125 -0.1875 -0.921875q-0.734375 1.078125 -1.875 1.078125q-1.140625 0 -1.796875 -0.640625q-0.640625 -0.65625 -0.640625 -1.828125q0 -1.28125 0.875 -2.03125q0.875 -0.765625 2.40625 -0.78125l1.015625 0l0 -0.90625q0 -0.75 -0.34375 -1.0625q-0.328125 -0.328125 -1.015625 -0.328125q-0.625 0 -1.015625 0.375q-0.390625 0.359375 -0.390625 0.9375l-1.390625 0q0 -0.65625 0.375 -1.234375q0.390625 -0.59375 1.03125 -0.921875q0.65625 -0.34375 1.453125 -0.34375q1.296875 0 1.96875 0.640625q0.6875 0.640625 0.703125 1.875l0 4.265625q0 0.984375 0.265625 1.703125l0 0.125l-1.4375 0zm-1.84375 -1.109375q0.5 0 0.953125 -0.28125q0.46875 -0.28125 0.6875 -0.703125l0 -2.015625l-0.78125 0q-0.984375 0.015625 -1.5625 0.453125q-0.5625 0.421875 -0.5625 1.1875q0 0.71875 0.28125 1.046875q0.296875 0.3125 0.984375 0.3125zm7.4375 -1.0l1.59375 -6.34375l1.40625 0l-2.5 8.453125l-1.03125 0l-2.546875 -8.453125l1.40625 0l1.671875 6.34375zm10.5625 -1.71875q0 1.984375 -0.71875 2.984375q-0.703125 1.0 -2.046875 1.0q-1.34375 0 -2.015625 -1.15625l-0.078125 1.0l-1.25 0l0 -12.0l1.375 0l0 4.46875q0.671875 -1.078125 1.953125 -1.078125q1.390625 0 2.078125 0.984375q0.703125 0.984375 0.703125 2.96875l0 0.828125zm-1.375 -0.78125q0 -1.5 -0.421875 -2.140625q-0.40625 -0.640625 -1.34375 -0.640625q-1.078125 0 -1.59375 1.15625l0 4.03125q0.515625 1.140625 1.609375 1.140625q0.9375 0 1.34375 -0.65625q0.40625 -0.65625 0.40625 -2.046875l0 -0.84375zm7.5 4.609375q-0.125 -0.28125 -0.1875 -0.921875q-0.734375 1.078125 -1.875 1.078125q-1.140625 0 -1.796875 -0.640625q-0.640625 -0.65625 -0.640625 -1.828125q0 -1.28125 0.875 -2.03125q0.875 -0.765625 2.40625 -0.78125l1.015625 0l0 -0.90625q0 -0.75 -0.34375 -1.0625q-0.328125 -0.328125 -1.015625 -0.328125q-0.625 0 -1.015625 0.375q-0.390625 0.359375 -0.390625 0.9375l-1.390625 0q0 -0.65625 0.375 -1.234375q0.390625 -0.59375 1.03125 -0.921875q0.65625 -0.34375 1.453125 -0.34375q1.296875 0 1.96875 0.640625q0.6875 0.640625 0.703125 1.875l0 4.265625q0 0.984375 0.265625 1.703125l0 0.125l-1.4375 0zm-1.84375 -1.109375q0.5 0 0.953125 -0.28125q0.46875 -0.28125 0.6875 -0.703125l0 -2.015625l-0.78125 0q-0.984375 0.015625 -1.5625 0.453125q-0.5625 0.421875 -0.5625 1.1875q0 0.71875 0.28125 1.046875q0.296875 0.3125 0.984375 0.3125zm8.6484375 -6.046875q-0.296875 -0.0625 -0.625 -0.0625q-1.0625 0 -1.484375 1.171875l0 6.046875l-1.390625 0l0 -8.453125l1.34375 0l0.03125 0.859375q0.546875 -1.015625 1.5625 -1.015625q0.328125 0 0.546875 0.109375l0.015625 1.34375z" fill-rule="nonzero"/><path fill="#ffffff" d="m182.6399 262.03018l0 0c0 -6.9579163 5.640503 -12.598419 12.598434 -12.598419l7.874008 0l12.846451 -25.207947l17.862213 25.207947l59.05513 0c3.3413086 0 6.545746 1.3273315 8.908417 3.6899872c2.362671 2.362671 3.6900024 5.5671234 3.6900024 8.908432l0 0l0 0l0 18.897644l0 31.496063c0 6.9579163 -5.640503 12.598419 -12.598419 12.598419l-59.05513 0l-30.708664 0l0 0l-7.874008 0c-6.9579315 0 -12.598434 -5.640503 -12.598434 -12.598419l0 -31.496063l0 -18.897644l0 0z" fill-rule="evenodd"/><path stroke="#595959" stroke-width="1.0" stroke-linejoin="round" stroke-linecap="butt" d="m182.6399 262.03018l0 0c0 -6.9579163 5.640503 -12.598419 12.598434 -12.598419l7.874008 0l12.846451 -25.207947l17.862213 25.207947l59.05513 0c3.3413086 0 6.545746 1.3273315 8.908417 3.6899872c2.362671 2.362671 3.6900024 5.5671234 3.6900024 8.908432l0 0l0 0l0 18.897644l0 31.496063c0 6.9579163 -5.640503 12.598419 -12.598419 12.598419l-59.05513 0l-30.708664 0l0 0l-7.874008 0c-6.9579315 0 -12.598434 -5.640503 -12.598434 -12.598419l0 -31.496063l0 -18.897644l0 0z" fill-rule="evenodd"/><path fill="#000000" d="m222.18613 293.08704l-6.359375 0l0 -1.046875l3.234375 -4.296875q0.734375 -0.984375 1.015625 -1.625q0.296875 -0.640625 0.296875 -1.34375q0 -0.90625 -0.421875 -1.46875q-0.421875 -0.5625 -1.109375 -0.5625q-0.875 0 -1.34375 0.59375q-0.46875 0.59375 -0.46875 1.71875l-1.390625 0q0 -1.5625 0.859375 -2.53125q0.859375 -0.96875 2.34375 -0.96875q1.359375 0 2.140625 0.828125q0.78125 0.828125 0.78125 2.21875q0 1.6875 -1.765625 3.984375l-2.53125 3.3125l4.71875 0l0 1.1875zm7.875 -4.25l-3.21875 0l0 -1.171875l3.21875 0l0 1.171875zm6.6953125 -0.203125l0 4.453125l-1.421875 0l0 -11.375l3.625 0q1.578125 0 2.484375 0.953125q0.90625 0.9375 0.90625 2.515625q0 1.640625 -0.859375 2.53125q-0.859375 0.890625 -2.4375 0.921875l-2.296875 0zm0 -1.234375l2.203125 0q0.953125 0 1.453125 -0.5625q0.515625 -0.578125 0.515625 -1.640625q0 -1.015625 -0.53125 -1.625q-0.515625 -0.625 -1.4375 -0.625l-2.203125 0l0 4.453125zm11.515625 5.6875q-0.125 -0.28125 -0.1875 -0.921875q-0.734375 1.078125 -1.875 1.078125q-1.140625 0 -1.796875 -0.640625q-0.640625 -0.65625 -0.640625 -1.828125q0 -1.28125 0.875 -2.03125q0.875 -0.765625 2.40625 -0.78125l1.015625 0l0 -0.90625q0 -0.75 -0.34375 -1.0625q-0.328125 -0.328125 -1.015625 -0.328125q-0.625 0 -1.015625 0.375q-0.390625 0.359375 -0.390625 0.9375l-1.390625 0q0 -0.65625 0.375 -1.234375q0.390625 -0.59375 1.03125 -0.921875q0.65625 -0.34375 1.453125 -0.34375q1.296875 0 1.96875 0.640625q0.6875 0.640625 0.703125 1.875l0 4.265625q0 0.984375 0.265625 1.703125l0 0.125l-1.4375 0zm-1.84375 -1.109375q0.5 0 0.953125 -0.28125q0.46875 -0.28125 0.6875 -0.703125l0 -2.015625l-0.78125 0q-0.984375 0.015625 -1.5625 0.453125q-0.5625 0.421875 -0.5625 1.1875q0 0.71875 0.28125 1.046875q0.296875 0.3125 0.984375 0.3125zm4.8828125 -3.5q0 -1.984375 0.71875 -2.984375q0.71875 -1.015625 2.09375 -1.015625q1.296875 0 1.96875 1.09375l0.0625 -0.9375l1.25 0l0 8.53125q0 1.578125 -0.8125 2.40625q-0.796875 0.84375 -2.234375 0.84375q-0.625 0 -1.40625 -0.3125q-0.765625 -0.296875 -1.15625 -0.75l0.5625 -0.953125q0.859375 0.84375 1.890625 0.84375q1.734375 0 1.78125 -1.890625l0 -1.109375q-0.671875 1.0 -1.90625 1.0q-1.3125 0 -2.046875 -0.984375q-0.734375 -1.0 -0.765625 -2.84375l0 -0.9375zm1.375 0.78125q0 1.421875 0.421875 2.09375q0.421875 0.671875 1.375 0.671875q1.03125 0 1.546875 -1.0625l0 -4.21875q-0.546875 -1.046875 -1.53125 -1.046875q-0.953125 0 -1.375 0.671875q-0.421875 0.671875 -0.4375 2.046875l0 0.84375zm9.8046875 3.984375q-1.578125 0 -2.421875 -0.9375q-0.84375 -0.953125 -0.859375 -2.765625l0 -1.03125q0 -1.890625 0.8125 -2.953125q0.828125 -1.078125 2.3125 -1.078125q1.484375 0 2.21875 0.953125q0.734375 0.9375 0.75 2.9375l0 0.90625l-4.71875 0l0 0.1875q0 1.359375 0.5 1.984375q0.515625 0.609375 1.484375 0.609375q0.609375 0 1.0625 -0.21875q0.46875 -0.234375 0.875 -0.734375l0.71875 0.875q-0.890625 1.265625 -2.734375 1.265625zm-0.15625 -7.578125q-0.859375 0 -1.28125 0.59375q-0.40625 0.578125 -0.46875 1.828125l3.328125 0l0 -0.1875q-0.046875 -1.203125 -0.4375 -1.71875q-0.375 -0.515625 -1.140625 -0.515625zm8.7265625 5.25q0 -0.4375 -0.34375 -0.75q-0.328125 -0.328125 -1.28125 -0.765625q-1.125 -0.453125 -1.578125 -0.78125q-0.453125 -0.328125 -0.6875 -0.75q-0.21875 -0.421875 -0.21875 -1.0q0 -1.03125 0.75 -1.703125q0.75 -0.6875 1.921875 -0.6875q1.234375 0 1.984375 0.71875q0.75 0.71875 0.75 1.84375l-1.375 0q0 -0.578125 -0.390625 -0.96875q-0.375 -0.40625 -0.96875 -0.40625q-0.609375 0 -0.953125 0.3125q-0.34375 0.3125 -0.34375 0.84375q0 0.421875 0.25 0.6875q0.25 0.25 1.21875 0.671875q1.546875 0.609375 2.09375 1.1875q0.5625 0.5625 0.5625 1.453125q0 1.09375 -0.765625 1.765625q-0.75 0.65625 -2.03125 0.65625q-1.3125 0 -2.140625 -0.75q-0.8125 -0.765625 -0.8125 -1.9375l1.390625 0q0.015625 0.703125 0.421875 1.109375q0.40625 0.390625 1.140625 0.390625q0.6875 0 1.046875 -0.296875q0.359375 -0.3125 0.359375 -0.84375z" fill-rule="nonzero"/><path fill="#ffffff" d="m252.85722 131.4252l0 0c0 -6.957924 5.6404877 -12.598427 12.598434 -12.598427l7.873993 0l0 0l30.70868 0l59.055115 0c3.3413086 0 6.5457764 1.3273239 8.908417 3.6899872c2.362671 2.3626633 3.6900024 5.567131 3.6900024 8.90844l0 31.496063l0 0l0 18.897629l0 0c0 6.9579163 -5.640503 12.598434 -12.598419 12.598434l-59.055115 0l-13.19574 25.207932l-17.51294 -25.207932l-7.873993 0c-6.957947 0 -12.598434 -5.640518 -12.598434 -12.598434l0 0l0 -18.897629l0 0z" fill-rule="evenodd"/><path stroke="#595959" stroke-width="1.0" stroke-linejoin="round" stroke-linecap="butt" d="m252.85722 131.4252l0 0c0 -6.957924 5.6404877 -12.598427 12.598434 -12.598427l7.873993 0l0 0l30.70868 0l59.055115 0c3.3413086 0 6.5457764 1.3273239 8.908417 3.6899872c2.362671 2.3626633 3.6900024 5.567131 3.6900024 8.90844l0 31.496063l0 0l0 18.897629l0 0c0 6.9579163 -5.640503 12.598434 -12.598419 12.598434l-59.055115 0l-13.19574 25.207932l-17.51294 -25.207932l-7.873993 0c-6.957947 0 -12.598434 -5.640518 -12.598434 -12.598434l0 0l0 -18.897629l0 0z" fill-rule="evenodd"/><path fill="#000000" d="m283.22766 156.09142l0.875 0q0.859375 0 1.3125 -0.515625q0.46875 -0.53125 0.46875 -1.4375q0 -2.0 -1.546875 -2.0q-0.75 0 -1.171875 0.546875q-0.421875 0.53125 -0.421875 1.40625l-1.375 0q0 -1.375 0.828125 -2.25q0.84375 -0.890625 2.140625 -0.890625q1.34375 0 2.125 0.84375q0.796875 0.828125 0.796875 2.375q0 0.78125 -0.421875 1.46875q-0.40625 0.6875 -1.0625 1.0q1.609375 0.59375 1.609375 2.671875q0 1.515625 -0.84375 2.421875q-0.84375 0.90625 -2.21875 0.90625q-1.34375 0 -2.1875 -0.859375q-0.828125 -0.859375 -0.828125 -2.296875l1.390625 0q0 0.90625 0.4375 1.4375q0.4375 0.53125 1.1875 0.53125q0.78125 0 1.234375 -0.515625q0.453125 -0.53125 0.453125 -1.59375q0 -2.078125 -1.953125 -2.078125l-0.828125 0l0 -1.171875zm12.46875 2.140625l-3.21875 0l0 -1.171875l3.21875 0l0 1.171875zm8.7109375 -0.359375l-2.0 0l0 4.609375l-1.4375 0l0 -11.375l3.1875 0q1.671875 0 2.53125 0.875q0.859375 0.859375 0.859375 2.546875q0 1.046875 -0.46875 1.84375q-0.46875 0.78125 -1.3125 1.171875l2.203125 4.84375l0 0.09375l-1.546875 0l-2.015625 -4.609375zm-2.0 -1.21875l1.734375 0q0.890625 0 1.421875 -0.578125q0.546875 -0.578125 0.546875 -1.546875q0 -2.1875 -1.984375 -2.1875l-1.71875 0l0 4.3125zm6.5703125 1.203125q0 -1.84375 0.890625 -2.90625q0.890625 -1.078125 2.359375 -1.078125q1.46875 0 2.359375 1.046875q0.90625 1.046875 0.921875 2.84375l0 0.890625q0 1.84375 -0.890625 2.921875q-0.890625 1.0625 -2.375 1.0625q-1.46875 0 -2.359375 -1.03125q-0.875 -1.046875 -0.90625 -2.828125l0 -0.921875zm1.375 0.796875q0 1.3125 0.515625 2.0625q0.515625 0.734375 1.375 0.734375q1.828125 0 1.890625 -2.640625l0 -0.953125q0 -1.296875 -0.515625 -2.046875q-0.515625 -0.75 -1.390625 -0.75q-0.84375 0 -1.359375 0.75q-0.515625 0.75 -0.515625 2.046875l0 0.796875zm11.25 3.078125q-0.6875 0.90625 -2.0 0.90625q-1.15625 0 -1.75 -0.796875q-0.578125 -0.796875 -0.578125 -2.3125l0 -5.5l1.375 0l0 5.40625q0 1.96875 1.1875 1.96875q1.25 0 1.734375 -1.125l0 -6.25l1.375 0l0 8.453125l-1.3125 0l-0.03125 -0.75zm5.234375 -9.75l0 2.046875l1.28125 0l0 1.109375l-1.28125 0l0 5.25q0 0.5 0.15625 0.765625q0.171875 0.25 0.578125 0.25q0.265625 0 0.546875 -0.09375l-0.015625 1.171875q-0.46875 0.15625 -0.953125 0.15625q-0.828125 0 -1.265625 -0.578125q-0.421875 -0.59375 -0.421875 -1.671875l0 -5.25l-1.28125 0l0 -1.109375l1.28125 0l0 -2.046875l1.375 0zm4.4140625 10.5l-1.390625 0l0 -8.453125l1.390625 0l0 8.453125zm0.109375 -10.703125q0 0.359375 -0.203125 0.59375q-0.1875 0.234375 -0.59375 0.234375q-0.390625 0 -0.59375 -0.234375q-0.1875 -0.234375 -0.1875 -0.578125q0 -0.359375 0.1875 -0.59375q0.203125 -0.25 0.59375 -0.25q0.390625 0 0.59375 0.25q0.203125 0.234375 0.203125 0.578125zm3.3671875 2.25l0.03125 0.90625q0.8125 -1.0625 2.0625 -1.0625q2.234375 0 2.265625 2.984375l0 5.625l-1.375 0l0 -5.5625q0 -0.984375 -0.328125 -1.40625q-0.328125 -0.421875 -1.0 -0.421875q-0.515625 0 -0.921875 0.34375q-0.40625 0.34375 -0.65625 0.90625l0 6.140625l-1.390625 0l0 -8.453125l1.3125 0zm6.1640625 3.84375q0 -1.984375 0.71875 -2.984375q0.71875 -1.015625 2.09375 -1.015625q1.296875 0 1.96875 1.09375l0.0625 -0.9375l1.25 0l0 8.53125q0 1.578125 -0.8125 2.40625q-0.796875 0.84375 -2.234375 0.84375q-0.625 0 -1.40625 -0.3125q-0.765625 -0.296875 -1.15625 -0.75l0.5625 -0.953125q0.859375 0.84375 1.890625 0.84375q1.734375 0 1.78125 -1.890625l0 -1.109375q-0.671875 1.0 -1.90625 1.0q-1.3125 0 -2.046875 -0.984375q-0.734375 -1.0 -0.765625 -2.84375l0 -0.9375zm1.375 0.78125q0 1.421875 0.421875 2.09375q0.421875 0.671875 1.375 0.671875q1.03125 0 1.546875 -1.0625l0 -4.21875q-0.546875 -1.046875 -1.53125 -1.046875q-0.953125 0 -1.375 0.671875q-0.421875 0.671875 -0.4375 2.046875l0 0.84375z" fill-rule="nonzero"/><path fill="#ffffff" d="m323.07455 262.03018l0 0c0 -6.9579163 5.640503 -12.598419 12.598419 -12.598419l7.873993 0l12.846466 -25.207947l17.862213 25.207947l59.055115 0c3.3413086 0 6.5457764 1.3273315 8.908447 3.6899872c2.3626404 2.362671 3.689972 5.5671234 3.689972 8.908432l0 0l0 0l0 18.897644l0 31.496063c0 6.9579163 -5.640503 12.598419 -12.598419 12.598419l-59.055115 0l-30.70868 0l0 0l-7.873993 0c-6.9579163 0 -12.598419 -5.640503 -12.598419 -12.598419l0 -31.496063l0 -18.897644l0 0z" fill-rule="evenodd"/><path stroke="#595959" stroke-width="1.0" stroke-linejoin="round" stroke-linecap="butt" d="m323.07455 262.03018l0 0c0 -6.9579163 5.640503 -12.598419 12.598419 -12.598419l7.873993 0l12.846466 -25.207947l17.862213 25.207947l59.055115 0c3.3413086 0 6.5457764 1.3273315 8.908447 3.6899872c2.3626404 2.362671 3.689972 5.5671234 3.689972 8.908432l0 0l0 0l0 18.897644l0 31.496063c0 6.9579163 -5.640503 12.598419 -12.598419 12.598419l-59.055115 0l-30.70868 0l0 0l-7.873993 0c-6.9579163 0 -12.598419 -5.640503 -12.598419 -12.598419l0 -31.496063l0 -18.897644l0 0z" fill-rule="evenodd"/><path fill="#000000" d="m351.4059 260.7589l1.265625 0l0 1.1875l-1.265625 0l0 2.640625l-1.390625 0l0 -2.640625l-4.296875 0l0 -0.859375l4.234375 -7.875l1.453125 0l0 7.546875zm-4.15625 0l2.765625 0l0 -5.40625l-2.765625 5.40625zm13.15625 -0.421875l-3.21875 0l0 -1.171875l3.21875 0l0 1.171875zm10.5703125 1.28125l-3.84375 0l-0.875 2.96875l-1.46875 0l3.65625 -11.375l1.234375 0l3.671875 11.375l-1.46875 0l-0.90625 -2.96875zm-3.46875 -1.234375l3.109375 0l-1.5625 -5.171875l-1.546875 5.171875zm7.796875 4.203125l0 -7.34375l-1.09375 0l0 -1.109375l1.09375 0l0 -0.984375q0.03125 -1.28125 0.65625 -2.0q0.625 -0.734375 1.78125 -0.734375q0.40625 0 0.828125 0.140625l-0.0625 1.171875q-0.296875 -0.078125 -0.640625 -0.078125q-1.171875 0 -1.171875 1.6875l0 0.796875l2.46875 0l0 -0.78125q0.015625 -1.390625 0.71875 -2.15625q0.703125 -0.78125 1.96875 -0.78125q0.484375 0 0.9375 0.140625q0.453125 0.140625 0.9375 0.34375l-0.234375 1.21875q-0.75 -0.390625 -1.546875 -0.390625q-0.765625 0 -1.09375 0.421875q-0.3125 0.40625 -0.3125 1.25l0 0.734375l1.375 0l0 1.109375l-1.375 0l0 7.34375l-1.375 0l0 -7.34375l-2.46875 0l0 7.34375l-1.390625 0zm9.078125 0l-1.375 0l0 -8.453125l1.375 0l0 8.453125zm5.1640625 -1.03125q0.6875 0 1.09375 -0.421875q0.421875 -0.421875 0.46875 -1.21875l1.296875 0q-0.046875 1.21875 -0.859375 2.03125q-0.8125 0.796875 -2.0 0.796875q-1.5625 0 -2.390625 -0.984375q-0.828125 -1.0 -0.828125 -2.953125l0 -0.921875q0 -1.921875 0.8125 -2.90625q0.828125 -1.0 2.40625 -1.0q1.296875 0 2.046875 0.828125q0.765625 0.8125 0.8125 2.234375l-1.296875 0q-0.046875 -0.9375 -0.453125 -1.40625q-0.40625 -0.46875 -1.109375 -0.46875q-0.921875 0 -1.375 0.609375q-0.4375 0.59375 -0.453125 1.984375l0 1.078125q0 1.484375 0.4375 2.109375q0.4375 0.609375 1.390625 0.609375zm5.84375 -6.5625q0.78125 -1.015625 2.015625 -1.015625q2.234375 0 2.265625 2.984375l0 5.625l-1.375 0l0 -5.5625q0 -0.984375 -0.328125 -1.40625q-0.328125 -0.421875 -1.0 -0.421875q-0.515625 0 -0.921875 0.34375q-0.40625 0.34375 -0.65625 0.90625l0 6.140625l-1.390625 0l0 -12.0l1.390625 0l0 4.40625zm10.6953125 7.59375q-0.125 -0.28125 -0.1875 -0.921875q-0.734375 1.078125 -1.875 1.078125q-1.140625 0 -1.796875 -0.640625q-0.640625 -0.65625 -0.640625 -1.828125q0 -1.28125 0.875 -2.03125q0.875 -0.765625 2.40625 -0.78125l1.015625 0l0 -0.90625q0 -0.75 -0.34375 -1.0625q-0.328125 -0.328125 -1.015625 -0.328125q-0.625 0 -1.015625 0.375q-0.390625 0.359375 -0.390625 0.9375l-1.390625 0q0 -0.65625 0.375 -1.234375q0.390625 -0.59375 1.03125 -0.921875q0.65625 -0.34375 1.453125 -0.34375q1.296875 0 1.96875 0.640625q0.6875 0.640625 0.703125 1.875l0 4.265625q0 0.984375 0.265625 1.703125l0 0.125l-1.4375 0zm-1.84375 -1.109375q0.5 0 0.953125 -0.28125q0.46875 -0.28125 0.6875 -0.703125l0 -2.015625l-0.78125 0q-0.984375 0.015625 -1.5625 0.453125q-0.5625 0.421875 -0.5625 1.1875q0 0.71875 0.28125 1.046875q0.296875 0.3125 0.984375 0.3125zm4.8828125 -3.5q0 -1.984375 0.71875 -2.984375q0.71875 -1.015625 2.09375 -1.015625q1.296875 0 1.96875 1.09375l0.0625 -0.9375l1.25 0l0 8.53125q0 1.578125 -0.8125 2.40625q-0.796875 0.84375 -2.234375 0.84375q-0.625 0 -1.40625 -0.3125q-0.765625 -0.296875 -1.15625 -0.75l0.5625 -0.953125q0.859375 0.84375 1.890625 0.84375q1.734375 0 1.78125 -1.890625l0 -1.109375q-0.671875 1.0 -1.90625 1.0q-1.3125 0 -2.046875 -0.984375q-0.734375 -1.0 -0.765625 -2.84375l0 -0.9375zm1.375 0.78125q0 1.421875 0.421875 2.09375q0.421875 0.671875 1.375 0.671875q1.03125 0 1.546875 -1.0625l0 -4.21875q-0.546875 -1.046875 -1.53125 -1.046875q-0.953125 0 -1.375 0.671875q-0.421875 0.671875 -0.4375 2.046875l0 0.84375zm9.8046875 3.984375q-1.578125 0 -2.421875 -0.9375q-0.84375 -0.953125 -0.859375 -2.765625l0 -1.03125q0 -1.890625 0.8125 -2.953125q0.828125 -1.078125 2.3125 -1.078125q1.484375 0 2.21875 0.953125q0.734375 0.9375 0.75 2.9375l0 0.90625l-4.71875 0l0 0.1875q0 1.359375 0.5 1.984375q0.515625 0.609375 1.484375 0.609375q0.609375 0 1.0625 -0.21875q0.46875 -0.234375 0.875 -0.734375l0.71875 0.875q-0.890625 1.265625 -2.734375 1.265625zm-0.15625 -7.578125q-0.859375 0 -1.28125 0.59375q-0.40625 0.578125 -0.46875 1.828125l3.328125 0l0 -0.1875q-0.046875 -1.203125 -0.4375 -1.71875q-0.375 -0.515625 -1.140625 -0.515625z" fill-rule="nonzero"/><path fill="#000000" d="m357.62076 279.1339l0 4.453125l-1.421875 0l0 -11.375l3.625 0q1.578125 0 2.484375 0.953125q0.90625 0.9375 0.90625 2.515625q0 1.640625 -0.859375 2.53125q-0.859375 0.890625 -2.4375 0.921875l-2.296875 0zm0 -1.234375l2.203125 0q0.953125 0 1.453125 -0.5625q0.515625 -0.578125 0.515625 -1.640625q0 -1.015625 -0.53125 -1.625q-0.515625 -0.625 -1.4375 -0.625l-2.203125 0l0 4.453125zm8.7421875 5.6875l-1.390625 0l0 -12.0l1.390625 0l0 12.0zm6.5234375 0q-0.125 -0.28125 -0.1875 -0.921875q-0.734375 1.078125 -1.875 1.078125q-1.140625 0 -1.796875 -0.640625q-0.640625 -0.65625 -0.640625 -1.828125q0 -1.28125 0.875 -2.03125q0.875 -0.765625 2.40625 -0.78125l1.015625 0l0 -0.90625q0 -0.75 -0.34375 -1.0625q-0.328125 -0.328125 -1.015625 -0.328125q-0.625 0 -1.015625 0.375q-0.390625 0.359375 -0.390625 0.9375l-1.390625 0q0 -0.65625 0.375 -1.234375q0.390625 -0.59375 1.03125 -0.921875q0.65625 -0.34375 1.453125 -0.34375q1.296875 0 1.96875 0.640625q0.6875 0.640625 0.703125 1.875l0 4.265625q0 0.984375 0.265625 1.703125l0 0.125l-1.4375 0zm-1.84375 -1.109375q0.5 0 0.953125 -0.28125q0.46875 -0.28125 0.6875 -0.703125l0 -2.015625l-0.78125 0q-0.984375 0.015625 -1.5625 0.453125q-0.5625 0.421875 -0.5625 1.1875q0 0.71875 0.28125 1.046875q0.296875 0.3125 0.984375 0.3125zm6.4609375 -7.34375l0.03125 0.90625q0.8125 -1.0625 2.0625 -1.0625q2.234375 0 2.265625 2.984375l0 5.625l-1.375 0l0 -5.5625q0 -0.984375 -0.328125 -1.40625q-0.328125 -0.421875 -1.0 -0.421875q-0.515625 0 -0.921875 0.34375q-0.40625 0.34375 -0.65625 0.90625l0 6.140625l-1.390625 0l0 -8.453125l1.3125 0zm8.2421875 -2.046875l0 2.046875l1.28125 0l0 1.109375l-1.28125 0l0 5.25q0 0.5 0.15625 0.765625q0.171875 0.25 0.578125 0.25q0.265625 0 0.546875 -0.09375l-0.015625 1.171875q-0.46875 0.15625 -0.953125 0.15625q-0.828125 0 -1.265625 -0.578125q-0.421875 -0.59375 -0.421875 -1.671875l0 -5.25l-1.28125 0l0 -1.109375l1.28125 0l0 -2.046875l1.375 0zm5.9453125 10.65625q-1.578125 0 -2.421875 -0.9375q-0.84375 -0.953125 -0.859375 -2.765625l0 -1.03125q0 -1.890625 0.8125 -2.953125q0.828125 -1.078125 2.3125 -1.078125q1.484375 0 2.21875 0.953125q0.734375 0.9375 0.75 2.9375l0 0.90625l-4.71875 0l0 0.1875q0 1.359375 0.5 1.984375q0.515625 0.609375 1.484375 0.609375q0.609375 0 1.0625 -0.21875q0.46875 -0.234375 0.875 -0.734375l0.71875 0.875q-0.890625 1.265625 -2.734375 1.265625zm-0.15625 -7.578125q-0.859375 0 -1.28125 0.59375q-0.40625 0.578125 -0.46875 1.828125l3.328125 0l0 -0.1875q-0.046875 -1.203125 -0.4375 -1.71875q-0.375 -0.515625 -1.140625 -0.515625zm8.7265625 5.25q0 -0.4375 -0.34375 -0.75q-0.328125 -0.328125 -1.28125 -0.765625q-1.125 -0.453125 -1.578125 -0.78125q-0.453125 -0.328125 -0.6875 -0.75q-0.21875 -0.421875 -0.21875 -1.0q0 -1.03125 0.75 -1.703125q0.75 -0.6875 1.921875 -0.6875q1.234375 0 1.984375 0.71875q0.75 0.71875 0.75 1.84375l-1.375 0q0 -0.578125 -0.390625 -0.96875q-0.375 -0.40625 -0.96875 -0.40625q-0.609375 0 -0.953125 0.3125q-0.34375 0.3125 -0.34375 0.84375q0 0.421875 0.25 0.6875q0.25 0.25 1.21875 0.671875q1.546875 0.609375 2.09375 1.1875q0.5625 0.5625 0.5625 1.453125q0 1.09375 -0.765625 1.765625q-0.75 0.65625 -2.03125 0.65625q-1.3125 0 -2.140625 -0.75q-0.8125 -0.765625 -0.8125 -1.9375l1.390625 0q0.015625 0.703125 0.421875 1.109375q0.40625 0.390625 1.140625 0.390625q0.6875 0 1.046875 -0.296875q0.359375 -0.3125 0.359375 -0.84375zm10.46875 -3.9375l2.578125 0l0 1.375l-2.578125 0l0 3.59375l-1.390625 0l0 -3.59375l-2.59375 0l0 -1.375l2.59375 0l0 -3.3125l1.390625 0l0 3.3125z" fill-rule="nonzero"/><path fill="#000000" d="m350.37466 299.71204q0 -0.859375 -0.46875 -1.3125q-0.453125 -0.453125 -1.65625 -0.875q-1.203125 -0.4375 -1.84375 -0.90625q-0.640625 -0.46875 -0.953125 -1.078125q-0.3125 -0.609375 -0.3125 -1.390625q0 -1.34375 0.890625 -2.21875q0.90625 -0.875 2.375 -0.875q1.0 0 1.78125 0.453125q0.78125 0.4375 1.203125 1.234375q0.421875 0.796875 0.421875 1.75l-1.4375 0q0 -1.046875 -0.515625 -1.625q-0.5 -0.578125 -1.453125 -0.578125q-0.875 0 -1.359375 0.484375q-0.46875 0.484375 -0.46875 1.359375q0 0.71875 0.515625 1.203125q0.515625 0.484375 1.59375 0.859375q1.6875 0.5625 2.40625 1.375q0.71875 0.8125 0.71875 2.125q0 1.375 -0.90625 2.21875q-0.890625 0.828125 -2.4375 0.828125q-0.984375 0 -1.828125 -0.4375q-0.84375 -0.4375 -1.328125 -1.21875q-0.46875 -0.78125 -0.46875 -1.796875l1.4375 0q0 1.046875 0.578125 1.640625q0.59375 0.578125 1.609375 0.578125q0.953125 0 1.421875 -0.484375q0.484375 -0.484375 0.484375 -1.3125zm6.1484375 3.03125q-1.578125 0 -2.421875 -0.9375q-0.84375 -0.953125 -0.859375 -2.765625l0 -1.03125q0 -1.890625 0.8125 -2.953125q0.828125 -1.078125 2.3125 -1.078125q1.484375 0 2.21875 0.953125q0.734375 0.9375 0.75 2.9375l0 0.90625l-4.71875 0l0 0.1875q0 1.359375 0.5 1.984375q0.515625 0.609375 1.484375 0.609375q0.609375 0 1.0625 -0.21875q0.46875 -0.234375 0.875 -0.734375l0.71875 0.875q-0.890625 1.265625 -2.734375 1.265625zm-0.15625 -7.578125q-0.859375 0 -1.28125 0.59375q-0.40625 0.578125 -0.46875 1.828125l3.328125 0l0 -0.1875q-0.046875 -1.203125 -0.4375 -1.71875q-0.375 -0.515625 -1.140625 -0.515625zm8.1171875 0.265625q-0.296875 -0.0625 -0.625 -0.0625q-1.0625 0 -1.484375 1.171875l0 6.046875l-1.390625 0l0 -8.453125l1.34375 0l0.03125 0.859375q0.546875 -1.015625 1.5625 -1.015625q0.328125 0 0.546875 0.109375l0.015625 1.34375zm3.9140625 5.046875l1.59375 -6.34375l1.40625 0l-2.5 8.453125l-1.03125 0l-2.546875 -8.453125l1.40625 0l1.671875 6.34375zm5.9375 2.109375l-1.390625 0l0 -8.453125l1.390625 0l0 8.453125zm0.109375 -10.703125q0 0.359375 -0.203125 0.59375q-0.1875 0.234375 -0.59375 0.234375q-0.390625 0 -0.59375 -0.234375q-0.1875 -0.234375 -0.1875 -0.578125q0 -0.359375 0.1875 -0.59375q0.203125 -0.25 0.59375 -0.25q0.390625 0 0.59375 0.25q0.203125 0.234375 0.203125 0.578125zm4.9921875 9.671875q0.6875 0 1.09375 -0.421875q0.421875 -0.421875 0.46875 -1.21875l1.296875 0q-0.046875 1.21875 -0.859375 2.03125q-0.8125 0.796875 -2.0 0.796875q-1.5625 0 -2.390625 -0.984375q-0.828125 -1.0 -0.828125 -2.953125l0 -0.921875q0 -1.921875 0.8125 -2.90625q0.828125 -1.0 2.40625 -1.0q1.296875 0 2.046875 0.828125q0.765625 0.8125 0.8125 2.234375l-1.296875 0q-0.046875 -0.9375 -0.453125 -1.40625q-0.40625 -0.46875 -1.109375 -0.46875q-0.921875 0 -1.375 0.609375q-0.4375 0.59375 -0.453125 1.984375l0 1.078125q0 1.484375 0.4375 2.109375q0.4375 0.609375 1.390625 0.609375zm7.484375 1.1875q-1.578125 0 -2.421875 -0.9375q-0.84375 -0.953125 -0.859375 -2.765625l0 -1.03125q0 -1.890625 0.8125 -2.953125q0.828125 -1.078125 2.3125 -1.078125q1.484375 0 2.21875 0.953125q0.734375 0.9375 0.75 2.9375l0 0.90625l-4.71875 0l0 0.1875q0 1.359375 0.5 1.984375q0.515625 0.609375 1.484375 0.609375q0.609375 0 1.0625 -0.21875q0.46875 -0.234375 0.875 -0.734375l0.71875 0.875q-0.890625 1.265625 -2.734375 1.265625zm-0.15625 -7.578125q-0.859375 0 -1.28125 0.59375q-0.40625 0.578125 -0.46875 1.828125l3.328125 0l0 -0.1875q-0.046875 -1.203125 -0.4375 -1.71875q-0.375 -0.515625 -1.140625 -0.515625zm12.40625 -3.953125l1.4375 0l0 8.046875q0 1.640625 -0.84375 2.5625q-0.828125 0.921875 -2.234375 0.921875q-1.4375 0 -2.25 -0.875q-0.796875 -0.875 -0.796875 -2.421875l1.421875 0q0 0.96875 0.421875 1.515625q0.4375 0.546875 1.203125 0.546875q0.75 0 1.1875 -0.59375q0.453125 -0.59375 0.453125 -1.65625l0 -8.046875zm7.71875 9.203125q0 -0.4375 -0.34375 -0.75q-0.328125 -0.328125 -1.28125 -0.765625q-1.125 -0.453125 -1.578125 -0.78125q-0.453125 -0.328125 -0.6875 -0.75q-0.21875 -0.421875 -0.21875 -1.0q0 -1.03125 0.75 -1.703125q0.75 -0.6875 1.921875 -0.6875q1.234375 0 1.984375 0.71875q0.75 0.71875 0.75 1.84375l-1.375 0q0 -0.578125 -0.390625 -0.96875q-0.375 -0.40625 -0.96875 -0.40625q-0.609375 0 -0.953125 0.3125q-0.34375 0.3125 -0.34375 0.84375q0 0.421875 0.25 0.6875q0.25 0.25 1.21875 0.671875q1.546875 0.609375 2.09375 1.1875q0.5625 0.5625 0.5625 1.453125q0 1.09375 -0.765625 1.765625q-0.75 0.65625 -2.03125 0.65625q-1.3125 0 -2.140625 -0.75q-0.8125 -0.765625 -0.8125 -1.9375l1.390625 0q0.015625 0.703125 0.421875 1.109375q0.40625 0.390625 1.140625 0.390625q0.6875 0 1.046875 -0.296875q0.359375 -0.3125 0.359375 -0.84375zm2.8984375 -2.453125q0 -1.84375 0.890625 -2.90625q0.890625 -1.078125 2.359375 -1.078125q1.46875 0 2.359375 1.046875q0.90625 1.046875 0.921875 2.84375l0 0.890625q0 1.84375 -0.890625 2.921875q-0.890625 1.0625 -2.375 1.0625q-1.46875 0 -2.359375 -1.03125q-0.875 -1.046875 -0.90625 -2.828125l0 -0.921875zm1.375 0.796875q0 1.3125 0.515625 2.0625q0.515625 0.734375 1.375 0.734375q1.828125 0 1.890625 -2.640625l0 -0.953125q0 -1.296875 -0.515625 -2.046875q-0.515625 -0.75 -1.390625 -0.75q-0.84375 0 -1.359375 0.75q-0.515625 0.75 -0.515625 2.046875l0 0.796875zm8.25 -4.625l0.03125 0.90625q0.8125 -1.0625 2.0625 -1.0625q2.234375 0 2.265625 2.984375l0 5.625l-1.375 0l0 -5.5625q0 -0.984375 -0.328125 -1.40625q-0.328125 -0.421875 -1.0 -0.421875q-0.515625 0 -0.921875 0.34375q-0.40625 0.34375 -0.65625 0.90625l0 6.140625l-1.390625 0l0 -8.453125l1.3125 0z" fill-rule="nonzero"/><path fill="#000000" d="m370.74966 318.71204q0 -0.859375 -0.46875 -1.3125q-0.453125 -0.453125 -1.65625 -0.875q-1.203125 -0.4375 -1.84375 -0.90625q-0.640625 -0.46875 -0.953125 -1.078125q-0.3125 -0.609375 -0.3125 -1.390625q0 -1.34375 0.890625 -2.21875q0.90625 -0.875 2.375 -0.875q1.0 0 1.78125 0.453125q0.78125 0.4375 1.203125 1.234375q0.421875 0.796875 0.421875 1.75l-1.4375 0q0 -1.046875 -0.515625 -1.625q-0.5 -0.578125 -1.453125 -0.578125q-0.875 0 -1.359375 0.484375q-0.46875 0.484375 -0.46875 1.359375q0 0.71875 0.515625 1.203125q0.515625 0.484375 1.59375 0.859375q1.6875 0.5625 2.40625 1.375q0.71875 0.8125 0.71875 2.125q0 1.375 -0.90625 2.21875q-0.890625 0.828125 -2.4375 0.828125q-0.984375 0 -1.828125 -0.4375q-0.84375 -0.4375 -1.328125 -1.21875q-0.46875 -0.78125 -0.46875 -1.796875l1.4375 0q0 1.046875 0.578125 1.640625q0.59375 0.578125 1.609375 0.578125q0.953125 0 1.421875 -0.484375q0.484375 -0.484375 0.484375 -1.3125zm6.1484375 3.03125q-1.578125 0 -2.421875 -0.9375q-0.84375 -0.953125 -0.859375 -2.765625l0 -1.03125q0 -1.890625 0.8125 -2.953125q0.828125 -1.078125 2.3125 -1.078125q1.484375 0 2.21875 0.953125q0.734375 0.9375 0.75 2.9375l0 0.90625l-4.71875 0l0 0.1875q0 1.359375 0.5 1.984375q0.515625 0.609375 1.484375 0.609375q0.609375 0 1.0625 -0.21875q0.46875 -0.234375 0.875 -0.734375l0.71875 0.875q-0.890625 1.265625 -2.734375 1.265625zm-0.15625 -7.578125q-0.859375 0 -1.28125 0.59375q-0.40625 0.578125 -0.46875 1.828125l3.328125 0l0 -0.1875q-0.046875 -1.203125 -0.4375 -1.71875q-0.375 -0.515625 -1.140625 -0.515625zm8.1171875 0.265625q-0.296875 -0.0625 -0.625 -0.0625q-1.0625 0 -1.484375 1.171875l0 6.046875l-1.390625 0l0 -8.453125l1.34375 0l0.03125 0.859375q0.546875 -1.015625 1.5625 -1.015625q0.328125 0 0.546875 0.109375l0.015625 1.34375zm3.9140625 5.046875l1.59375 -6.34375l1.40625 0l-2.5 8.453125l-1.03125 0l-2.546875 -8.453125l1.40625 0l1.671875 6.34375zm7.3671875 2.265625q-1.578125 0 -2.421875 -0.9375q-0.84375 -0.953125 -0.859375 -2.765625l0 -1.03125q0 -1.890625 0.8125 -2.953125q0.828125 -1.078125 2.3125 -1.078125q1.484375 0 2.21875 0.953125q0.734375 0.9375 0.75 2.9375l0 0.90625l-4.71875 0l0 0.1875q0 1.359375 0.5 1.984375q0.515625 0.609375 1.484375 0.609375q0.609375 0 1.0625 -0.21875q0.46875 -0.234375 0.875 -0.734375l0.71875 0.875q-0.890625 1.265625 -2.734375 1.265625zm-0.15625 -7.578125q-0.859375 0 -1.28125 0.59375q-0.40625 0.578125 -0.46875 1.828125l3.328125 0l0 -0.1875q-0.046875 -1.203125 -0.4375 -1.71875q-0.375 -0.515625 -1.140625 -0.515625zm8.1171875 0.265625q-0.296875 -0.0625 -0.625 -0.0625q-1.0625 0 -1.484375 1.171875l0 6.046875l-1.390625 0l0 -8.453125l1.34375 0l0.03125 0.859375q0.546875 -1.015625 1.5625 -1.015625q0.328125 0 0.546875 0.109375l0.015625 1.34375z" fill-rule="nonzero"/><path fill="#ffffff" d="m393.29187 131.4252l0 0c0 -6.957924 5.640503 -12.598427 12.598419 -12.598427l7.8740234 0l0 0l30.708649 0l59.055115 0c3.3413086 0 6.5457764 1.3273239 8.908447 3.6899872c2.362671 2.3626633 3.6900024 5.567131 3.6900024 8.90844l0 31.496063l0 0l0 18.897629l0 0c0 6.9579163 -5.6405334 12.598434 -12.59845 12.598434l-59.055115 0l-13.195709 25.207932l-17.51294 -25.207932l-7.8740234 0c-6.9579163 0 -12.598419 -5.640518 -12.598419 -12.598434l0 0l0 -18.897629l0 0z" fill-rule="evenodd"/><path stroke="#595959" stroke-width="1.0" stroke-linejoin="round" stroke-linecap="butt" d="m393.29187 131.4252l0 0c0 -6.957924 5.640503 -12.598427 12.598419 -12.598427l7.8740234 0l0 0l30.708649 0l59.055115 0c3.3413086 0 6.5457764 1.3273239 8.908447 3.6899872c2.362671 2.3626633 3.6900024 5.567131 3.6900024 8.90844l0 31.496063l0 0l0 18.897629l0 0c0 6.9579163 -5.6405334 12.598434 -12.59845 12.598434l-59.055115 0l-13.195709 25.207932l-17.51294 -25.207932l-7.8740234 0c-6.9579163 0 -12.598419 -5.640518 -12.598419 -12.598434l0 0l0 -18.897629l0 0z" fill-rule="evenodd"/><path fill="#000000" d="m413.73654 147.27892l0.484375 -5.671875l4.953125 0l0 1.328125l-3.78125 0l-0.265625 3.109375q0.703125 -0.5 1.515625 -0.5q1.328125 0 2.078125 1.03125q0.765625 1.03125 0.765625 2.78125q0 1.765625 -0.828125 2.78125q-0.828125 1.0 -2.265625 1.0q-1.28125 0 -2.09375 -0.828125q-0.796875 -0.84375 -0.90625 -2.328125l1.296875 0q0.109375 0.984375 0.546875 1.484375q0.453125 0.484375 1.15625 0.484375q0.8125 0 1.265625 -0.6875q0.453125 -0.703125 0.453125 -1.890625q0 -1.125 -0.5 -1.828125q-0.484375 -0.703125 -1.3125 -0.703125q-0.6875 0 -1.09375 0.359375l-0.375 0.375l-1.09375 -0.296875zm13.671875 1.453125l-3.21875 0l0 -1.171875l3.21875 0l0 1.171875zm6.6953125 -0.203125l0 4.453125l-1.421875 0l0 -11.375l3.625 0q1.578125 0 2.484375 0.953125q0.90625 0.9375 0.90625 2.515625q0 1.640625 -0.859375 2.53125q-0.859375 0.890625 -2.4375 0.921875l-2.296875 0zm0 -1.234375l2.203125 0q0.953125 0 1.453125 -0.5625q0.515625 -0.578125 0.515625 -1.640625q0 -1.015625 -0.53125 -1.625q-0.515625 -0.625 -1.4375 -0.625l-2.203125 0l0 4.453125zm8.7421875 5.6875l-1.390625 0l0 -12.0l1.390625 0l0 12.0zm6.5234375 0q-0.125 -0.28125 -0.1875 -0.921875q-0.734375 1.078125 -1.875 1.078125q-1.140625 0 -1.796875 -0.640625q-0.640625 -0.65625 -0.640625 -1.828125q0 -1.28125 0.875 -2.03125q0.875 -0.765625 2.40625 -0.78125l1.015625 0l0 -0.90625q0 -0.75 -0.34375 -1.0625q-0.328125 -0.328125 -1.015625 -0.328125q-0.625 0 -1.015625 0.375q-0.390625 0.359375 -0.390625 0.9375l-1.390625 0q0 -0.65625 0.375 -1.234375q0.390625 -0.59375 1.03125 -0.921875q0.65625 -0.34375 1.453125 -0.34375q1.296875 0 1.96875 0.640625q0.6875 0.640625 0.703125 1.875l0 4.265625q0 0.984375 0.265625 1.703125l0 0.125l-1.4375 0zm-1.84375 -1.109375q0.5 0 0.953125 -0.28125q0.46875 -0.28125 0.6875 -0.703125l0 -2.015625l-0.78125 0q-0.984375 0.015625 -1.5625 0.453125q-0.5625 0.421875 -0.5625 1.1875q0 0.71875 0.28125 1.046875q0.296875 0.3125 0.984375 0.3125zm6.4609375 -7.34375l0.03125 0.90625q0.8125 -1.0625 2.0625 -1.0625q2.234375 0 2.265625 2.984375l0 5.625l-1.375 0l0 -5.5625q0 -0.984375 -0.328125 -1.40625q-0.328125 -0.421875 -1.0 -0.421875q-0.515625 0 -0.921875 0.34375q-0.40625 0.34375 -0.65625 0.90625l0 6.140625l-1.390625 0l0 -8.453125l1.3125 0zm8.2421875 -2.046875l0 2.046875l1.28125 0l0 1.109375l-1.28125 0l0 5.25q0 0.5 0.15625 0.765625q0.171875 0.25 0.578125 0.25q0.265625 0 0.546875 -0.09375l-0.015625 1.171875q-0.46875 0.15625 -0.953125 0.15625q-0.828125 0 -1.265625 -0.578125q-0.421875 -0.59375 -0.421875 -1.671875l0 -5.25l-1.28125 0l0 -1.109375l1.28125 0l0 -2.046875l1.375 0zm13.90625 6.890625q-0.09375 1.828125 -1.03125 2.796875q-0.921875 0.96875 -2.625 0.96875q-1.71875 0 -2.734375 -1.296875q-1.0 -1.3125 -1.0 -3.53125l0 -2.0625q0 -2.21875 1.03125 -3.5q1.046875 -1.296875 2.828125 -1.296875q1.65625 0 2.546875 0.984375q0.90625 0.984375 0.984375 2.828125l-1.4375 0q-0.09375 -1.390625 -0.59375 -1.984375q-0.484375 -0.59375 -1.5 -0.59375q-1.15625 0 -1.78125 0.90625q-0.625 0.90625 -0.625 2.671875l0 2.078125q0 1.734375 0.578125 2.65625q0.578125 0.921875 1.6875 0.921875q1.125 0 1.609375 -0.546875q0.5 -0.5625 0.625 -2.0l1.4375 0zm6.1015625 3.609375q-0.125 -0.28125 -0.1875 -0.921875q-0.734375 1.078125 -1.875 1.078125q-1.140625 0 -1.796875 -0.640625q-0.640625 -0.65625 -0.640625 -1.828125q0 -1.28125 0.875 -2.03125q0.875 -0.765625 2.40625 -0.78125l1.015625 0l0 -0.90625q0 -0.75 -0.34375 -1.0625q-0.328125 -0.328125 -1.015625 -0.328125q-0.625 0 -1.015625 0.375q-0.390625 0.359375 -0.390625 0.9375l-1.390625 0q0 -0.65625 0.375 -1.234375q0.390625 -0.59375 1.03125 -0.921875q0.65625 -0.34375 1.453125 -0.34375q1.296875 0 1.96875 0.640625q0.6875 0.640625 0.703125 1.875l0 4.265625q0 0.984375 0.265625 1.703125l0 0.125l-1.4375 0zm-1.84375 -1.109375q0.5 0 0.953125 -0.28125q0.46875 -0.28125 0.6875 -0.703125l0 -2.015625l-0.78125 0q-0.984375 0.015625 -1.5625 0.453125q-0.5625 0.421875 -0.5625 1.1875q0 0.71875 0.28125 1.046875q0.296875 0.3125 0.984375 0.3125zm8.6484375 -6.046875q-0.296875 -0.0625 -0.625 -0.0625q-1.0625 0 -1.484375 1.171875l0 6.046875l-1.390625 0l0 -8.453125l1.34375 0l0.03125 0.859375q0.546875 -1.015625 1.5625 -1.015625q0.328125 0 0.546875 0.109375l0.015625 1.34375zm0.9375 2.546875q0 -1.953125 0.71875 -2.96875q0.734375 -1.03125 2.109375 -1.03125q1.203125 0 1.890625 0.984375l0 -4.375l1.375 0l0 12.0l-1.265625 0l-0.0625 -0.90625q-0.6875 1.0625 -1.953125 1.0625q-1.3125 0 -2.0625 -1.015625q-0.734375 -1.03125 -0.75 -2.890625l0 -0.859375zm1.375 0.78125q0 1.421875 0.421875 2.09375q0.421875 0.671875 1.375 0.671875q1.03125 0 1.546875 -1.046875l0 -4.265625q-0.53125 -1.015625 -1.53125 -1.015625q-0.953125 0 -1.375 0.671875q-0.421875 0.671875 -0.4375 2.046875l0 0.84375z" fill-rule="nonzero"/><path fill="#000000" d="m444.0256 168.06018q-0.0625 1.828125 -0.78125 2.953125q-0.703125 1.125 -1.953125 1.125q-1.203125 0 -1.578125 -1.25q-0.359375 0.625 -0.796875 0.9375q-0.421875 0.3125 -0.875 0.3125q-0.953125 0 -1.4375 -0.90625q-0.46875 -0.921875 -0.34375 -2.515625q0.09375 -1.265625 0.5 -2.28125q0.40625 -1.03125 1.03125 -1.609375q0.625 -0.578125 1.296875 -0.578125q0.5625 0 0.984375 0.171875q0.4375 0.171875 0.96875 0.65625l-0.359375 4.328125q-0.125 1.8125 0.78125 1.8125q0.6875 0 1.125 -0.84375q0.453125 -0.84375 0.5 -2.3125q0.125 -3.0625 -0.9375 -4.640625q-1.0625 -1.59375 -3.1875 -1.59375q-1.3125 0 -2.296875 0.78125q-0.984375 0.78125 -1.546875 2.25q-0.5625 1.453125 -0.625 3.390625q-0.109375 2.953125 0.953125 4.625q1.078125 1.671875 3.09375 1.671875q0.609375 0 1.203125 -0.171875q0.59375 -0.171875 0.984375 -0.4375l0.25 0.890625q-0.40625 0.3125 -1.09375 0.5q-0.671875 0.203125 -1.359375 0.203125q-1.640625 0 -2.828125 -0.875q-1.171875 -0.875 -1.765625 -2.53125q-0.578125 -1.65625 -0.515625 -3.875q0.078125 -2.15625 0.796875 -3.875q0.734375 -1.71875 1.96875 -2.640625q1.25 -0.9375 2.8125 -0.9375q1.609375 0 2.78125 0.890625q1.1875 0.875 1.75 2.515625q0.578125 1.625 0.5 3.859375zm-6.59375 0.65625q-0.078125 1.109375 0.171875 1.703125q0.265625 0.59375 0.796875 0.59375q0.34375 0 0.65625 -0.375q0.328125 -0.375 0.53125 -1.078125l0.015625 -0.15625l0.3125 -3.96875q-0.34375 -0.1875 -0.703125 -0.1875q-0.71875 0 -1.203125 0.9375q-0.46875 0.9375 -0.578125 2.53125zm10.1015625 3.265625l-1.421875 0l0 -11.375l1.421875 0l0 11.375zm3.625 -8.453125l0.03125 0.90625q0.8125 -1.0625 2.0625 -1.0625q2.234375 0 2.265625 2.984375l0 5.625l-1.375 0l0 -5.5625q0 -0.984375 -0.328125 -1.40625q-0.328125 -0.421875 -1.0 -0.421875q-0.515625 0 -0.921875 0.34375q-0.40625 0.34375 -0.65625 0.90625l0 6.140625l-1.390625 0l0 -8.453125l1.3125 0zm12.5390625 4.625q0 2.015625 -0.71875 3.0q-0.71875 0.984375 -2.046875 0.984375q-1.265625 0 -1.953125 -0.96875l0 4.0625l-1.375 0l0 -11.703125l1.25 0l0.0625 0.9375q0.703125 -1.09375 2.0 -1.09375q1.390625 0 2.078125 0.96875q0.6875 0.96875 0.703125 2.890625l0 0.921875zm-1.375 -0.78125q0 -1.421875 -0.4375 -2.09375q-0.4375 -0.6875 -1.40625 -0.6875q-0.984375 0 -1.5 1.0l0 4.390625q0.5 0.96875 1.515625 0.96875q0.9375 0 1.375 -0.671875q0.453125 -0.671875 0.453125 -2.0625l0 -0.84375zm7.46875 3.859375q-0.6875 0.90625 -2.0 0.90625q-1.15625 0 -1.75 -0.796875q-0.578125 -0.796875 -0.578125 -2.3125l0 -5.5l1.375 0l0 5.40625q0 1.96875 1.1875 1.96875q1.25 0 1.734375 -1.125l0 -6.25l1.375 0l0 8.453125l-1.3125 0l-0.03125 -0.75zm5.234375 -9.75l0 2.046875l1.28125 0l0 1.109375l-1.28125 0l0 5.25q0 0.5 0.15625 0.765625q0.171875 0.25 0.578125 0.25q0.265625 0 0.546875 -0.09375l-0.015625 1.171875q-0.46875 0.15625 -0.953125 0.15625q-0.828125 0 -1.265625 -0.578125q-0.421875 -0.59375 -0.421875 -1.671875l0 -5.25l-1.28125 0l0 -1.109375l1.28125 0l0 -2.046875l1.375 0z" fill-rule="nonzero"/><path fill="#ffffff" d="m463.5092 262.03018l0 0c0 -6.9579163 5.640503 -12.598419 12.598419 -12.598419l7.8740234 0l12.846466 -25.207947l17.862213 25.207947l59.055115 0c3.3413086 0 6.5457764 1.3273315 8.908386 3.6899872c2.362671 2.362671 3.6900024 5.5671234 3.6900024 8.908432l0 0l0 0l0 18.897644l0 31.496063c0 6.9579163 -5.640503 12.598419 -12.598389 12.598419l-59.055115 0l-30.70868 0l0 0l-7.8740234 0c-6.9579163 0 -12.598419 -5.640503 -12.598419 -12.598419l0 -31.496063l0 -18.897644l0 0z" fill-rule="evenodd"/><path stroke="#595959" stroke-width="1.0" stroke-linejoin="round" stroke-linecap="butt" d="m463.5092 262.03018l0 0c0 -6.9579163 5.640503 -12.598419 12.598419 -12.598419l7.8740234 0l12.846466 -25.207947l17.862213 25.207947l59.055115 0c3.3413086 0 6.5457764 1.3273315 8.908386 3.6899872c2.362671 2.362671 3.6900024 5.5671234 3.6900024 8.908432l0 0l0 0l0 18.897644l0 31.496063c0 6.9579163 -5.640503 12.598419 -12.598389 12.598419l-59.055115 0l-30.70868 0l0 0l-7.8740234 0c-6.9579163 0 -12.598419 -5.640503 -12.598419 -12.598419l0 -31.496063l0 -18.897644l0 0z" fill-rule="evenodd"/><path fill="#000000" d="m505.01245 262.6964l0 1.234375l-0.234375 0q-1.375 0.03125 -2.15625 0.9375q-0.78125 0.890625 -0.90625 2.703125q0.765625 -0.953125 1.9375 -0.953125q1.265625 0 2.0 1.046875q0.734375 1.03125 0.734375 2.703125q0 1.796875 -0.8125 2.84375q-0.8125 1.03125 -2.1875 1.03125q-1.390625 0 -2.234375 -1.21875q-0.84375 -1.234375 -0.84375 -3.265625l0 -0.5625q0 -2.34375 0.5 -3.734375q0.515625 -1.390625 1.5 -2.0625q1.0 -0.671875 2.46875 -0.703125l0.234375 0zm-1.59375 5.125q-0.5625 0 -1.046875 0.4375q-0.46875 0.421875 -0.671875 1.09375l0 0.5625q0 1.390625 0.484375 2.265625q0.484375 0.859375 1.203125 0.859375q0.765625 0 1.203125 -0.703125q0.4375 -0.71875 0.4375 -1.890625q0 -1.15625 -0.4375 -1.890625q-0.4375 -0.734375 -1.171875 -0.734375zm11.015625 2.015625l-3.21875 0l0 -1.171875l3.21875 0l0 1.171875zm10.5390625 -0.78125l-3.84375 0l0 5.03125l-1.421875 0l0 -11.375l5.921875 0l0 1.234375l-4.5 0l0 3.890625l3.84375 0l0 1.21875zm3.71875 5.03125l-1.390625 0l0 -8.453125l1.390625 0l0 8.453125zm0.109375 -10.703125q0 0.359375 -0.203125 0.59375q-0.1875 0.234375 -0.59375 0.234375q-0.390625 0 -0.59375 -0.234375q-0.1875 -0.234375 -0.1875 -0.578125q0 -0.359375 0.1875 -0.59375q0.203125 -0.25 0.59375 -0.25q0.390625 0 0.59375 0.25q0.203125 0.234375 0.203125 0.578125zm3.5546875 10.703125l-1.390625 0l0 -12.0l1.390625 0l0 12.0zm3.9765625 -10.5l0 2.046875l1.28125 0l0 1.109375l-1.28125 0l0 5.25q0 0.5 0.15625 0.765625q0.171875 0.25 0.578125 0.25q0.265625 0 0.546875 -0.09375l-0.015625 1.171875q-0.46875 0.15625 -0.953125 0.15625q-0.828125 0 -1.265625 -0.578125q-0.421875 -0.59375 -0.421875 -1.671875l0 -5.25l-1.28125 0l0 -1.109375l1.28125 0l0 -2.046875l1.375 0zm5.9453125 10.65625q-1.578125 0 -2.421875 -0.9375q-0.84375 -0.953125 -0.859375 -2.765625l0 -1.03125q0 -1.890625 0.8125 -2.953125q0.828125 -1.078125 2.3125 -1.078125q1.484375 0 2.21875 0.953125q0.734375 0.9375 0.75 2.9375l0 0.90625l-4.71875 0l0 0.1875q0 1.359375 0.5 1.984375q0.515625 0.609375 1.484375 0.609375q0.609375 0 1.0625 -0.21875q0.46875 -0.234375 0.875 -0.734375l0.71875 0.875q-0.890625 1.265625 -2.734375 1.265625zm-0.15625 -7.578125q-0.859375 0 -1.28125 0.59375q-0.40625 0.578125 -0.46875 1.828125l3.328125 0l0 -0.1875q-0.046875 -1.203125 -0.4375 -1.71875q-0.375 -0.515625 -1.140625 -0.515625zm8.1171875 0.265625q-0.296875 -0.0625 -0.625 -0.0625q-1.0625 0 -1.484375 1.171875l0 6.046875l-1.390625 0l0 -8.453125l1.34375 0l0.03125 0.859375q0.546875 -1.015625 1.5625 -1.015625q0.328125 0 0.546875 0.109375l0.015625 1.34375z" fill-rule="nonzero"/><path fill="#000000" d="m504.38745 290.21204q0 -0.859375 -0.46875 -1.3125q-0.453125 -0.453125 -1.65625 -0.875q-1.203125 -0.4375 -1.84375 -0.90625q-0.640625 -0.46875 -0.953125 -1.078125q-0.3125 -0.609375 -0.3125 -1.390625q0 -1.34375 0.890625 -2.21875q0.90625 -0.875 2.375 -0.875q1.0 0 1.78125 0.453125q0.78125 0.4375 1.203125 1.234375q0.421875 0.796875 0.421875 1.75l-1.4375 0q0 -1.046875 -0.515625 -1.625q-0.5 -0.578125 -1.453125 -0.578125q-0.875 0 -1.359375 0.484375q-0.46875 0.484375 -0.46875 1.359375q0 0.71875 0.515625 1.203125q0.515625 0.484375 1.59375 0.859375q1.6875 0.5625 2.40625 1.375q0.71875 0.8125 0.71875 2.125q0 1.375 -0.90625 2.21875q-0.890625 0.828125 -2.4375 0.828125q-0.984375 0 -1.828125 -0.4375q-0.84375 -0.4375 -1.328125 -1.21875q-0.46875 -0.78125 -0.46875 -1.796875l1.4375 0q0 1.046875 0.578125 1.640625q0.59375 0.578125 1.609375 0.578125q0.953125 0 1.421875 -0.484375q0.484375 -0.484375 0.484375 -1.3125zm4.6171875 2.875l-1.390625 0l0 -8.453125l1.390625 0l0 8.453125zm0.109375 -10.703125q0 0.359375 -0.203125 0.59375q-0.1875 0.234375 -0.59375 0.234375q-0.390625 0 -0.59375 -0.234375q-0.1875 -0.234375 -0.1875 -0.578125q0 -0.359375 0.1875 -0.59375q0.203125 -0.25 0.59375 -0.25q0.390625 0 0.59375 0.25q0.203125 0.234375 0.203125 0.578125zm1.7734375 6.09375q0 -1.953125 0.71875 -2.96875q0.734375 -1.03125 2.109375 -1.03125q1.203125 0 1.890625 0.984375l0 -4.375l1.375 0l0 12.0l-1.265625 0l-0.0625 -0.90625q-0.6875 1.0625 -1.953125 1.0625q-1.3125 0 -2.0625 -1.015625q-0.734375 -1.03125 -0.75 -2.890625l0 -0.859375zm1.375 0.78125q0 1.421875 0.421875 2.09375q0.421875 0.671875 1.375 0.671875q1.03125 0 1.546875 -1.046875l0 -4.265625q-0.53125 -1.015625 -1.53125 -1.015625q-0.953125 0 -1.375 0.671875q-0.421875 0.671875 -0.4375 2.046875l0 0.84375zm9.875 3.984375q-1.578125 0 -2.421875 -0.9375q-0.84375 -0.953125 -0.859375 -2.765625l0 -1.03125q0 -1.890625 0.8125 -2.953125q0.828125 -1.078125 2.3125 -1.078125q1.484375 0 2.21875 0.953125q0.734375 0.9375 0.75 2.9375l0 0.90625l-4.71875 0l0 0.1875q0 1.359375 0.5 1.984375q0.515625 0.609375 1.484375 0.609375q0.609375 0 1.0625 -0.21875q0.46875 -0.234375 0.875 -0.734375l0.71875 0.875q-0.890625 1.265625 -2.734375 1.265625zm-0.15625 -7.578125q-0.859375 0 -1.28125 0.59375q-0.40625 0.578125 -0.46875 1.828125l3.328125 0l0 -0.1875q-0.046875 -1.203125 -0.4375 -1.71875q-0.375 -0.515625 -1.140625 -0.515625zm7.1796875 3.171875l-3.21875 0l0 -1.171875l3.21875 0l0 1.171875zm2.71875 -4.203125l0.03125 0.90625q0.8125 -1.0625 2.0625 -1.0625q2.234375 0 2.265625 2.984375l0 5.625l-1.375 0l0 -5.5625q0 -0.984375 -0.328125 -1.40625q-0.328125 -0.421875 -1.0 -0.421875q-0.515625 0 -0.921875 0.34375q-0.40625 0.34375 -0.65625 0.90625l0 6.140625l-1.390625 0l0 -8.453125l1.3125 0zm10.7890625 8.453125q-0.125 -0.28125 -0.1875 -0.921875q-0.734375 1.078125 -1.875 1.078125q-1.140625 0 -1.796875 -0.640625q-0.640625 -0.65625 -0.640625 -1.828125q0 -1.28125 0.875 -2.03125q0.875 -0.765625 2.40625 -0.78125l1.015625 0l0 -0.90625q0 -0.75 -0.34375 -1.0625q-0.328125 -0.328125 -1.015625 -0.328125q-0.625 0 -1.015625 0.375q-0.390625 0.359375 -0.390625 0.9375l-1.390625 0q0 -0.65625 0.375 -1.234375q0.390625 -0.59375 1.03125 -0.921875q0.65625 -0.34375 1.453125 -0.34375q1.296875 0 1.96875 0.640625q0.6875 0.640625 0.703125 1.875l0 4.265625q0 0.984375 0.265625 1.703125l0 0.125l-1.4375 0zm-1.84375 -1.109375q0.5 0 0.953125 -0.28125q0.46875 -0.28125 0.6875 -0.703125l0 -2.015625l-0.78125 0q-0.984375 0.015625 -1.5625 0.453125q-0.5625 0.421875 -0.5625 1.1875q0 0.71875 0.28125 1.046875q0.296875 0.3125 0.984375 0.3125zm7.4375 -1.0l1.59375 -6.34375l1.40625 0l-2.5 8.453125l-1.03125 0l-2.546875 -8.453125l1.40625 0l1.671875 6.34375z" fill-rule="nonzero"/><path fill="#000000" d="m499.45386 307.46204q0 -2.046875 0.546875 -3.84375q0.5625 -1.8125 1.578125 -3.171875q0.609375 -0.8125 1.1875 -1.203125l0.265625 0.953125q-0.9375 0.90625 -1.546875 2.71875q-0.59375 1.796875 -0.640625 4.015625l-0.015625 0.625q0 2.75 0.78125 4.875q0.578125 1.578125 1.421875 2.453125l-0.265625 0.875q-0.71875 -0.484375 -1.46875 -1.59375q-1.84375 -2.796875 -1.84375 -6.703125zm7.4453125 2.515625l1.59375 -6.34375l1.40625 0l-2.5 8.453125l-1.03125 0l-2.546875 -8.453125l1.40625 0l1.671875 6.34375zm7.3671875 2.265625q-1.578125 0 -2.421875 -0.9375q-0.84375 -0.953125 -0.859375 -2.765625l0 -1.03125q0 -1.890625 0.8125 -2.953125q0.828125 -1.078125 2.3125 -1.078125q1.484375 0 2.21875 0.953125q0.734375 0.9375 0.75 2.9375l0 0.90625l-4.71875 0l0 0.1875q0 1.359375 0.5 1.984375q0.515625 0.609375 1.484375 0.609375q0.609375 0 1.0625 -0.21875q0.46875 -0.234375 0.875 -0.734375l0.71875 0.875q-0.890625 1.265625 -2.734375 1.265625zm-0.15625 -7.578125q-0.859375 0 -1.28125 0.59375q-0.40625 0.578125 -0.46875 1.828125l3.328125 0l0 -0.1875q-0.046875 -1.203125 -0.4375 -1.71875q-0.375 -0.515625 -1.140625 -0.515625zm6.1171875 7.421875l-1.390625 0l0 -8.453125l1.390625 0l0 8.453125zm0.109375 -10.703125q0 0.359375 -0.203125 0.59375q-0.1875 0.234375 -0.59375 0.234375q-0.390625 0 -0.59375 -0.234375q-0.1875 -0.234375 -0.1875 -0.578125q0 -0.359375 0.1875 -0.59375q0.203125 -0.25 0.59375 -0.25q0.390625 0 0.59375 0.25q0.203125 0.234375 0.203125 0.578125zm3.5546875 10.703125l-1.390625 0l0 -12.0l1.390625 0l0 12.0zm3.6640625 0l-1.390625 0l0 -12.0l1.390625 0l0 12.0zm5.1953125 0.15625q-1.578125 0 -2.421875 -0.9375q-0.84375 -0.953125 -0.859375 -2.765625l0 -1.03125q0 -1.890625 0.8125 -2.953125q0.828125 -1.078125 2.3125 -1.078125q1.484375 0 2.21875 0.953125q0.734375 0.9375 0.75 2.9375l0 0.90625l-4.71875 0l0 0.1875q0 1.359375 0.5 1.984375q0.515625 0.609375 1.484375 0.609375q0.609375 0 1.0625 -0.21875q0.46875 -0.234375 0.875 -0.734375l0.71875 0.875q-0.890625 1.265625 -2.734375 1.265625zm-0.15625 -7.578125q-0.859375 0 -1.28125 0.59375q-0.40625 0.578125 -0.46875 1.828125l3.328125 0l0 -0.1875q-0.046875 -1.203125 -0.4375 -1.71875q-0.375 -0.515625 -1.140625 -0.515625zm13.546875 8.609375l-6.109375 0l0 -1.1875l6.109375 0l0 1.1875zm4.1953125 -5.734375q0 3.484375 -1.5625 6.171875q-0.84375 1.4375 -1.75 2.046875l-0.28125 -0.875q0.984375 -0.953125 1.578125 -2.890625q0.609375 -1.953125 0.625 -4.265625l0 -0.28125q0 -2.96875 -0.96875 -5.3125q-0.546875 -1.28125 -1.234375 -2.0l0.28125 -0.890625q0.859375 0.578125 1.65625 1.90625q1.65625 2.71875 1.65625 6.390625z" fill-rule="nonzero"/><path fill="#ffffff" d="m533.7249 132.4567l0 0c0 -6.957924 5.640503 -12.598427 12.59845 -12.598427l7.8740234 0l0 0l30.70868 0l59.055115 0c3.3413086 0 6.5457153 1.3273315 8.908386 3.6899948c2.362671 2.3626633 3.6900024 5.5671234 3.6900024 8.908432l0 31.496063l0 0l0 18.897629l0 0c0 6.9579315 -5.640503 12.598434 -12.598389 12.598434l-59.055115 0l-13.19574 25.207932l-17.51294 -25.207932l-7.8740234 0c-6.957947 0 -12.59845 -5.640503 -12.59845 -12.598434l0 0l0 -18.897629l0 0z" fill-rule="evenodd"/><path stroke="#595959" stroke-width="1.0" stroke-linejoin="round" stroke-linecap="butt" d="m533.7249 132.4567l0 0c0 -6.957924 5.640503 -12.598427 12.59845 -12.598427l7.8740234 0l0 0l30.70868 0l59.055115 0c3.3413086 0 6.5457153 1.3273315 8.908386 3.6899948c2.362671 2.3626633 3.6900024 5.5671234 3.6900024 8.908432l0 31.496063l0 0l0 18.897629l0 0c0 6.9579315 -5.640503 12.598434 -12.598389 12.598434l-59.055115 0l-13.19574 25.207932l-17.51294 -25.207932l-7.8740234 0c-6.957947 0 -12.59845 -5.640503 -12.59845 -12.598434l0 0l0 -18.897629l0 0z" fill-rule="evenodd"/><path fill="#000000" d="m557.3376 143.45105l-3.90625 10.5625l-1.453125 0l3.90625 -10.1875l-5.0625 0l0 -1.1875l6.515625 0l0 0.8125zm7.96875 6.3125l-3.21875 0l0 -1.171875l3.21875 0l0 1.171875zm8.7109375 -0.359375l-2.0 0l0 4.609375l-1.4375 0l0 -11.375l3.1875 0q1.671875 0 2.53125 0.875q0.859375 0.859375 0.859375 2.546875q0 1.046875 -0.46875 1.84375q-0.46875 0.78125 -1.3125 1.171875l2.203125 4.84375l0 0.09375l-1.546875 0l-2.015625 -4.609375zm-2.0 -1.21875l1.734375 0q0.890625 0 1.421875 -0.578125q0.546875 -0.578125 0.546875 -1.546875q0 -2.1875 -1.984375 -2.1875l-1.71875 0l0 4.3125zm9.8828125 5.984375q-1.578125 0 -2.421875 -0.9375q-0.84375 -0.953125 -0.859375 -2.765625l0 -1.03125q0 -1.890625 0.8125 -2.953125q0.828125 -1.078125 2.3125 -1.078125q1.484375 0 2.21875 0.953125q0.734375 0.9375 0.75 2.9375l0 0.90625l-4.71875 0l0 0.1875q0 1.359375 0.5 1.984375q0.515625 0.609375 1.484375 0.609375q0.609375 0 1.0625 -0.21875q0.46875 -0.234375 0.875 -0.734375l0.71875 0.875q-0.890625 1.265625 -2.734375 1.265625zm-0.15625 -7.578125q-0.859375 0 -1.28125 0.59375q-0.40625 0.578125 -0.46875 1.828125l3.328125 0l0 -0.1875q-0.046875 -1.203125 -0.4375 -1.71875q-0.375 -0.515625 -1.140625 -0.515625zm7.5546875 6.390625q0.6875 0 1.09375 -0.421875q0.421875 -0.421875 0.46875 -1.21875l1.296875 0q-0.046875 1.21875 -0.859375 2.03125q-0.8125 0.796875 -2.0 0.796875q-1.5625 0 -2.390625 -0.984375q-0.828125 -1.0 -0.828125 -2.953125l0 -0.921875q0 -1.921875 0.8125 -2.90625q0.828125 -1.0 2.40625 -1.0q1.296875 0 2.046875 0.828125q0.765625 0.8125 0.8125 2.234375l-1.296875 0q-0.046875 -0.9375 -0.453125 -1.40625q-0.40625 -0.46875 -1.109375 -0.46875q-0.921875 0 -1.375 0.609375q-0.4375 0.59375 -0.453125 1.984375l0 1.078125q0 1.484375 0.4375 2.109375q0.4375 0.609375 1.390625 0.609375zm5.84375 -6.5625q0.78125 -1.015625 2.015625 -1.015625q2.234375 0 2.265625 2.984375l0 5.625l-1.375 0l0 -5.5625q0 -0.984375 -0.328125 -1.40625q-0.328125 -0.421875 -1.0 -0.421875q-0.515625 0 -0.921875 0.34375q-0.40625 0.34375 -0.65625 0.90625l0 6.140625l-1.390625 0l0 -12.0l1.390625 0l0 4.40625zm9.3671875 7.75q-1.578125 0 -2.421875 -0.9375q-0.84375 -0.953125 -0.859375 -2.765625l0 -1.03125q0 -1.890625 0.8125 -2.953125q0.828125 -1.078125 2.3125 -1.078125q1.484375 0 2.21875 0.953125q0.734375 0.9375 0.75 2.9375l0 0.90625l-4.71875 0l0 0.1875q0 1.359375 0.5 1.984375q0.515625 0.609375 1.484375 0.609375q0.609375 0 1.0625 -0.21875q0.46875 -0.234375 0.875 -0.734375l0.71875 0.875q-0.890625 1.265625 -2.734375 1.265625zm-0.15625 -7.578125q-0.859375 0 -1.28125 0.59375q-0.40625 0.578125 -0.46875 1.828125l3.328125 0l0 -0.1875q-0.046875 -1.203125 -0.4375 -1.71875q-0.375 -0.515625 -1.140625 -0.515625zm8.1171875 0.265625q-0.296875 -0.0625 -0.625 -0.0625q-1.0625 0 -1.484375 1.171875l0 6.046875l-1.390625 0l0 -8.453125l1.34375 0l0.03125 0.859375q0.546875 -1.015625 1.5625 -1.015625q0.328125 0 0.546875 0.109375l0.015625 1.34375zm4.15625 6.125q0.6875 0 1.09375 -0.421875q0.421875 -0.421875 0.46875 -1.21875l1.296875 0q-0.046875 1.21875 -0.859375 2.03125q-0.8125 0.796875 -2.0 0.796875q-1.5625 0 -2.390625 -0.984375q-0.828125 -1.0 -0.828125 -2.953125l0 -0.921875q0 -1.921875 0.8125 -2.90625q0.828125 -1.0 2.40625 -1.0q1.296875 0 2.046875 0.828125q0.765625 0.8125 0.8125 2.234375l-1.296875 0q-0.046875 -0.9375 -0.453125 -1.40625q-0.40625 -0.46875 -1.109375 -0.46875q-0.921875 0 -1.375 0.609375q-0.4375 0.59375 -0.453125 1.984375l0 1.078125q0 1.484375 0.4375 2.109375q0.4375 0.609375 1.390625 0.609375zm5.84375 -6.5625q0.78125 -1.015625 2.015625 -1.015625q2.234375 0 2.265625 2.984375l0 5.625l-1.375 0l0 -5.5625q0 -0.984375 -0.328125 -1.40625q-0.328125 -0.421875 -1.0 -0.421875q-0.515625 0 -0.921875 0.34375q-0.40625 0.34375 -0.65625 0.90625l0 6.140625l-1.390625 0l0 -12.0l1.390625 0l0 4.40625zm9.3671875 7.75q-1.578125 0 -2.421875 -0.9375q-0.84375 -0.953125 -0.859375 -2.765625l0 -1.03125q0 -1.890625 0.8125 -2.953125q0.828125 -1.078125 2.3125 -1.078125q1.484375 0 2.21875 0.953125q0.734375 0.9375 0.75 2.9375l0 0.90625l-4.71875 0l0 0.1875q0 1.359375 0.5 1.984375q0.515625 0.609375 1.484375 0.609375q0.609375 0 1.0625 -0.21875q0.46875 -0.234375 0.875 -0.734375l0.71875 0.875q-0.890625 1.265625 -2.734375 1.265625zm-0.15625 -7.578125q-0.859375 0 -1.28125 0.59375q-0.40625 0.578125 -0.46875 1.828125l3.328125 0l0 -0.1875q-0.046875 -1.203125 -0.4375 -1.71875q-0.375 -0.515625 -1.140625 -0.515625zm8.1171875 0.265625q-0.296875 -0.0625 -0.625 -0.0625q-1.0625 0 -1.484375 1.171875l0 6.046875l-1.390625 0l0 -8.453125l1.34375 0l0.03125 0.859375q0.546875 -1.015625 1.5625 -1.015625q0.328125 0 0.546875 0.109375l0.015625 1.34375z" fill-rule="nonzero"/><path fill="#000000" d="m578.4548 173.1698q-1.578125 0 -2.421875 -0.9375q-0.84375 -0.953125 -0.859375 -2.765625l0 -1.03125q0 -1.890625 0.8125 -2.953125q0.828125 -1.078125 2.3125 -1.078125q1.484375 0 2.21875 0.953125q0.734375 0.9375 0.75 2.9375l0 0.90625l-4.71875 0l0 0.1875q0 1.359375 0.5 1.984375q0.515625 0.609375 1.484375 0.609375q0.609375 0 1.0625 -0.21875q0.46875 -0.234375 0.875 -0.734375l0.71875 0.875q-0.890625 1.265625 -2.734375 1.265625zm-0.15625 -7.578125q-0.859375 0 -1.28125 0.59375q-0.40625 0.578125 -0.46875 1.828125l3.328125 0l0 -0.1875q-0.046875 -1.203125 -0.4375 -1.71875q-0.375 -0.515625 -1.140625 -0.515625zm6.4296875 -3.078125l0 2.046875l1.28125 0l0 1.109375l-1.28125 0l0 5.25q0 0.5 0.15625 0.765625q0.171875 0.25 0.578125 0.25q0.265625 0 0.546875 -0.09375l-0.015625 1.171875q-0.46875 0.15625 -0.953125 0.15625q-0.828125 0 -1.265625 -0.578125q-0.421875 -0.59375 -0.421875 -1.671875l0 -5.25l-1.28125 0l0 -1.109375l1.28125 0l0 -2.046875l1.375 0zm8.390625 0l0 2.046875l1.28125 0l0 1.109375l-1.28125 0l0 5.25q0 0.5 0.15625 0.765625q0.171875 0.25 0.578125 0.25q0.265625 0 0.546875 -0.09375l-0.015625 1.171875q-0.46875 0.15625 -0.953125 0.15625q-0.828125 0 -1.265625 -0.578125q-0.421875 -0.59375 -0.421875 -1.671875l0 -5.25l-1.28125 0l0 -1.109375l1.28125 0l0 -2.046875l1.375 0zm6.4140625 3.34375q-0.296875 -0.0625 -0.625 -0.0625q-1.0625 0 -1.484375 1.171875l0 6.046875l-1.390625 0l0 -8.453125l1.34375 0l0.03125 0.859375q0.546875 -1.015625 1.5625 -1.015625q0.328125 0 0.546875 0.109375l0.015625 1.34375zm2.8671875 7.15625l-1.390625 0l0 -8.453125l1.390625 0l0 8.453125zm0.109375 -10.703125q0 0.359375 -0.203125 0.59375q-0.1875 0.234375 -0.59375 0.234375q-0.390625 0 -0.59375 -0.234375q-0.1875 -0.234375 -0.1875 -0.578125q0 -0.359375 0.1875 -0.59375q0.203125 -0.25 0.59375 -0.25q0.390625 0 0.59375 0.25q0.203125 0.234375 0.203125 0.578125zm5.0859375 10.859375q-1.578125 0 -2.421875 -0.9375q-0.84375 -0.953125 -0.859375 -2.765625l0 -1.03125q0 -1.890625 0.8125 -2.953125q0.828125 -1.078125 2.3125 -1.078125q1.484375 0 2.21875 0.953125q0.734375 0.9375 0.75 2.9375l0 0.90625l-4.71875 0l0 0.1875q0 1.359375 0.5 1.984375q0.515625 0.609375 1.484375 0.609375q0.609375 0 1.0625 -0.21875q0.46875 -0.234375 0.875 -0.734375l0.71875 0.875q-0.890625 1.265625 -2.734375 1.265625zm-0.15625 -7.578125q-0.859375 0 -1.28125 0.59375q-0.40625 0.578125 -0.46875 1.828125l3.328125 0l0 -0.1875q-0.046875 -1.203125 -0.4375 -1.71875q-0.375 -0.515625 -1.140625 -0.515625zm8.1171875 0.265625q-0.296875 -0.0625 -0.625 -0.0625q-1.0625 0 -1.484375 1.171875l0 6.046875l-1.390625 0l0 -8.453125l1.34375 0l0.03125 0.859375q0.546875 -1.015625 1.5625 -1.015625q0.328125 0 0.546875 0.109375l0.015625 1.34375z" fill-rule="nonzero"/><path fill="#ffffff" d="m603.9449 260.1509l0 0c0 -6.9579163 5.640503 -12.598419 12.59845 -12.598419l7.8739624 0l12.846497 -25.207932l17.862183 25.207932l59.055115 0c3.3413086 0 6.5457764 1.3273315 8.908447 3.6900024c2.362671 2.3626556 3.6900024 5.567108 3.6900024 8.908417l0 0l0 0l0 18.897644l0 31.496063c0 6.9579163 -5.640503 12.598419 -12.59845 12.598419l-59.055115 0l-30.70868 0l0 0l-7.8739624 0c-6.957947 0 -12.59845 -5.640503 -12.59845 -12.598419l0 -31.496063l0 -18.897644l0 0z" fill-rule="evenodd"/><path stroke="#d9d9d9" stroke-width="1.0" stroke-linejoin="round" stroke-linecap="butt" d="m603.9449 260.1509l0 0c0 -6.9579163 5.640503 -12.598419 12.59845 -12.598419l7.8739624 0l12.846497 -25.207932l17.862183 25.207932l59.055115 0c3.3413086 0 6.5457764 1.3273315 8.908447 3.6900024c2.362671 2.3626556 3.6900024 5.567108 3.6900024 8.908417l0 0l0 0l0 18.897644l0 31.496063c0 6.9579163 -5.640503 12.598419 -12.59845 12.598419l-59.055115 0l-30.70868 0l0 0l-7.8739624 0c-6.957947 0 -12.59845 -5.640503 -12.59845 -12.598419l0 -31.496063l0 -18.897644l0 0z" fill-rule="evenodd"/><path fill="#d9d9d9" d="m626.28796 263.8015q0 0.84375 -0.375 1.515625q-0.375 0.65625 -1.015625 1.03125q0.75 0.390625 1.171875 1.125q0.4375 0.734375 0.4375 1.65625q0 1.46875 -0.828125 2.359375q-0.828125 0.875 -2.203125 0.875q-1.375 0 -2.21875 -0.875q-0.828125 -0.890625 -0.828125 -2.359375q0 -0.9375 0.421875 -1.671875q0.4375 -0.734375 1.171875 -1.109375q-0.640625 -0.375 -1.015625 -1.03125q-0.359375 -0.671875 -0.359375 -1.515625q0 -1.4375 0.765625 -2.28125q0.78125 -0.84375 2.0625 -0.84375q1.265625 0 2.03125 0.84375q0.78125 0.828125 0.78125 2.28125zm-1.15625 5.296875q0 -0.96875 -0.46875 -1.5625q-0.453125 -0.59375 -1.203125 -0.59375q-0.765625 0 -1.21875 0.59375q-0.4375 0.59375 -0.4375 1.5625q0 0.984375 0.4375 1.53125q0.4375 0.546875 1.234375 0.546875q0.796875 0 1.21875 -0.546875q0.4375 -0.546875 0.4375 -1.53125zm-0.21875 -5.28125q0 -0.859375 -0.40625 -1.40625q-0.40625 -0.546875 -1.03125 -0.546875q-0.671875 0 -1.0625 0.546875q-0.390625 0.53125 -0.390625 1.40625q0 0.890625 0.390625 1.421875q0.40625 0.515625 1.0625 0.515625q0.65625 0 1.046875 -0.53125q0.390625 -0.53125 0.390625 -1.40625zm9.765625 4.140625l-3.21875 0l0 -1.171875l3.21875 0l0 1.171875zm12.3984375 0.640625q-0.09375 1.828125 -1.03125 2.796875q-0.921875 0.96875 -2.625 0.96875q-1.71875 0 -2.734375 -1.296875q-1.0 -1.3125 -1.0 -3.53125l0 -2.0625q0 -2.21875 1.03125 -3.5q1.046875 -1.296875 2.828125 -1.296875q1.65625 0 2.546875 0.984375q0.90625 0.984375 0.984375 2.828125l-1.4375 0q-0.09375 -1.390625 -0.59375 -1.984375q-0.484375 -0.59375 -1.5 -0.59375q-1.15625 0 -1.78125 0.90625q-0.625 0.90625 -0.625 2.671875l0 2.078125q0 1.734375 0.578125 2.65625q0.578125 0.921875 1.6875 0.921875q1.125 0 1.609375 -0.546875q0.5 -0.5625 0.625 -2.0l1.4375 0zm1.4609375 -1.015625q0 -1.84375 0.890625 -2.90625q0.890625 -1.078125 2.359375 -1.078125q1.46875 0 2.359375 1.046875q0.90625 1.046875 0.921875 2.84375l0 0.890625q0 1.84375 -0.890625 2.921875q-0.890625 1.0625 -2.375 1.0625q-1.46875 0 -2.359375 -1.03125q-0.875 -1.046875 -0.90625 -2.828125l0 -0.921875zm1.375 0.796875q0 1.3125 0.515625 2.0625q0.515625 0.734375 1.375 0.734375q1.828125 0 1.890625 -2.640625l0 -0.953125q0 -1.296875 -0.515625 -2.046875q-0.515625 -0.75 -1.390625 -0.75q-0.84375 0 -1.359375 0.75q-0.515625 0.75 -0.515625 2.046875l0 0.796875zm8.25 -4.625l0.03125 0.78125q0.765625 -0.9375 2.03125 -0.9375q1.421875 0 1.984375 1.21875q0.796875 -1.21875 2.21875 -1.21875q2.328125 0 2.390625 2.90625l0 5.703125l-1.375 0l0 -5.5625q0 -0.921875 -0.328125 -1.375q-0.328125 -0.453125 -1.109375 -0.453125q-0.625 0 -1.015625 0.484375q-0.390625 0.484375 -0.453125 1.234375l0 5.671875l-1.390625 0l0 -5.625q-0.03125 -1.765625 -1.4375 -1.765625q-1.046875 0 -1.46875 1.046875l0 6.34375l-1.375 0l0 -8.453125l1.296875 0zm16.835938 4.625q0 2.015625 -0.71875 3.0q-0.71875 0.984375 -2.046875 0.984375q-1.265625 0 -1.953125 -0.96875l0 4.0625l-1.375 0l0 -11.703125l1.25 0l0.0625 0.9375q0.703125 -1.09375 2.0 -1.09375q1.390625 0 2.078125 0.96875q0.6875 0.96875 0.703125 2.890625l0 0.921875zm-1.375 -0.78125q0 -1.421875 -0.4375 -2.09375q-0.4375 -0.6875 -1.40625 -0.6875q-0.984375 0 -1.5 1.0l0 4.390625q0.5 0.96875 1.515625 0.96875q0.9375 0 1.375 -0.671875q0.453125 -0.671875 0.453125 -2.0625l0 -0.84375zm2.875 -0.015625q0 -1.84375 0.890625 -2.90625q0.890625 -1.078125 2.359375 -1.078125q1.46875 0 2.359375 1.046875q0.90625 1.046875 0.921875 2.84375l0 0.890625q0 1.84375 -0.890625 2.921875q-0.890625 1.0625 -2.375 1.0625q-1.46875 0 -2.359375 -1.03125q-0.875 -1.046875 -0.90625 -2.828125l0 -0.921875zm1.375 0.796875q0 1.3125 0.515625 2.0625q0.515625 0.734375 1.375 0.734375q1.828125 0 1.890625 -2.640625l0 -0.953125q0 -1.296875 -0.515625 -2.046875q-0.515625 -0.75 -1.390625 -0.75q-0.84375 0 -1.359375 0.75q-0.515625 0.75 -0.515625 2.046875l0 0.796875zm11.046875 1.65625q0 -0.4375 -0.34375 -0.75q-0.328125 -0.328125 -1.28125 -0.765625q-1.125 -0.453125 -1.578125 -0.78125q-0.453125 -0.328125 -0.6875 -0.75q-0.21875 -0.421875 -0.21875 -1.0q0 -1.03125 0.75 -1.703125q0.75 -0.6875 1.921875 -0.6875q1.234375 0 1.984375 0.71875q0.75 0.71875 0.75 1.84375l-1.375 0q0 -0.578125 -0.390625 -0.96875q-0.375 -0.40625 -0.96875 -0.40625q-0.609375 0 -0.953125 0.3125q-0.34375 0.3125 -0.34375 0.84375q0 0.421875 0.25 0.6875q0.25 0.25 1.21875 0.671875q1.546875 0.609375 2.09375 1.1875q0.5625 0.5625 0.5625 1.453125q0 1.09375 -0.765625 1.765625q-0.75 0.65625 -2.03125 0.65625q-1.3125 0 -2.140625 -0.75q-0.8125 -0.765625 -0.8125 -1.9375l1.390625 0q0.015625 0.703125 0.421875 1.109375q0.40625 0.390625 1.140625 0.390625q0.6875 0 1.046875 -0.296875q0.359375 -0.3125 0.359375 -0.84375zm7.5390625 2.171875q-0.125 -0.28125 -0.1875 -0.921875q-0.734375 1.078125 -1.875 1.078125q-1.140625 0 -1.796875 -0.640625q-0.640625 -0.65625 -0.640625 -1.828125q0 -1.28125 0.875 -2.03125q0.875 -0.765625 2.40625 -0.78125l1.015625 0l0 -0.90625q0 -0.75 -0.34375 -1.0625q-0.328125 -0.328125 -1.015625 -0.328125q-0.625 0 -1.015625 0.375q-0.390625 0.359375 -0.390625 0.9375l-1.390625 0q0 -0.65625 0.375 -1.234375q0.390625 -0.59375 1.03125 -0.921875q0.65625 -0.34375 1.453125 -0.34375q1.296875 0 1.96875 0.640625q0.6875 0.640625 0.703125 1.875l0 4.265625q0 0.984375 0.265625 1.703125l0 0.125l-1.4375 0zm-1.84375 -1.109375q0.5 0 0.953125 -0.28125q0.46875 -0.28125 0.6875 -0.703125l0 -2.015625l-0.78125 0q-0.984375 0.015625 -1.5625 0.453125q-0.5625 0.421875 -0.5625 1.1875q0 0.71875 0.28125 1.046875q0.296875 0.3125 0.984375 0.3125zm6.4609375 -7.34375l0.03125 0.90625q0.8125 -1.0625 2.0625 -1.0625q2.234375 0 2.265625 2.984375l0 5.625l-1.375 0l0 -5.5625q0 -0.984375 -0.328125 -1.40625q-0.328125 -0.421875 -1.0 -0.421875q-0.515625 0 -0.921875 0.34375q-0.40625 0.34375 -0.65625 0.90625l0 6.140625l-1.390625 0l0 -8.453125l1.3125 0zm8.2421875 -2.046875l0 2.046875l1.28125 0l0 1.109375l-1.28125 0l0 5.25q0 0.5 0.15625 0.765625q0.171875 0.25 0.578125 0.25q0.265625 0 0.546875 -0.09375l-0.015625 1.171875q-0.46875 0.15625 -0.953125 0.15625q-0.828125 0 -1.265625 -0.578125q-0.421875 -0.59375 -0.421875 -1.671875l0 -5.25l-1.28125 0l0 -1.109375l1.28125 0l0 -2.046875l1.375 0z" fill-rule="nonzero"/><path fill="#d9d9d9" d="m627.08093 291.20776l-1.421875 0l0 -11.375l1.421875 0l0 11.375zm5.25 -1.03125q0.6875 0 1.09375 -0.421875q0.421875 -0.421875 0.46875 -1.21875l1.296875 0q-0.046875 1.21875 -0.859375 2.03125q-0.8125 0.796875 -2.0 0.796875q-1.5625 0 -2.390625 -0.984375q-0.828125 -1.0 -0.828125 -2.953125l0 -0.921875q0 -1.921875 0.8125 -2.90625q0.828125 -1.0 2.40625 -1.0q1.296875 0 2.046875 0.828125q0.765625 0.8125 0.8125 2.234375l-1.296875 0q-0.046875 -0.9375 -0.453125 -1.40625q-0.40625 -0.46875 -1.109375 -0.46875q-0.921875 0 -1.375 0.609375q-0.4375 0.59375 -0.453125 1.984375l0 1.078125q0 1.484375 0.4375 2.109375q0.4375 0.609375 1.390625 0.609375zm4.171875 -3.59375q0 -1.84375 0.890625 -2.90625q0.890625 -1.078125 2.359375 -1.078125q1.46875 0 2.359375 1.046875q0.90625 1.046875 0.921875 2.84375l0 0.890625q0 1.84375 -0.890625 2.921875q-0.890625 1.0625 -2.375 1.0625q-1.46875 0 -2.359375 -1.03125q-0.875 -1.046875 -0.90625 -2.828125l0 -0.921875zm1.375 0.796875q0 1.3125 0.515625 2.0625q0.515625 0.734375 1.375 0.734375q1.828125 0 1.890625 -2.640625l0 -0.953125q0 -1.296875 -0.515625 -2.046875q-0.515625 -0.75 -1.390625 -0.75q-0.84375 0 -1.359375 0.75q-0.515625 0.75 -0.515625 2.046875l0 0.796875zm8.25 -4.625l0.03125 0.90625q0.8125 -1.0625 2.0625 -1.0625q2.234375 0 2.265625 2.984375l0 5.625l-1.375 0l0 -5.5625q0 -0.984375 -0.328125 -1.40625q-0.328125 -0.421875 -1.0 -0.421875q-0.515625 0 -0.921875 0.34375q-0.40625 0.34375 -0.65625 0.90625l0 6.140625l-1.390625 0l0 -8.453125l1.3125 0zm17.382812 2.34375l2.578125 0l0 1.375l-2.578125 0l0 3.59375l-1.390625 0l0 -3.59375l-2.59375 0l0 -1.375l2.59375 0l0 -3.3125l1.390625 0l0 3.3125zm8.59375 6.109375l0 -7.34375l-1.09375 0l0 -1.109375l1.09375 0l0 -0.984375q0.03125 -1.28125 0.65625 -2.0q0.625 -0.734375 1.78125 -0.734375q0.40625 0 0.828125 0.140625l-0.0625 1.171875q-0.296875 -0.078125 -0.640625 -0.078125q-1.171875 0 -1.171875 1.6875l0 0.796875l1.4375 0l0 1.109375l-1.4375 0l0 7.34375l-1.390625 0zm8.8125 0q-0.125 -0.28125 -0.1875 -0.921875q-0.734375 1.078125 -1.875 1.078125q-1.140625 0 -1.796875 -0.640625q-0.640625 -0.65625 -0.640625 -1.828125q0 -1.28125 0.875 -2.03125q0.875 -0.765625 2.40625 -0.78125l1.015625 0l0 -0.90625q0 -0.75 -0.34375 -1.0625q-0.328125 -0.328125 -1.015625 -0.328125q-0.625 0 -1.015625 0.375q-0.390625 0.359375 -0.390625 0.9375l-1.390625 0q0 -0.65625 0.375 -1.234375q0.390625 -0.59375 1.03125 -0.921875q0.65625 -0.34375 1.453125 -0.34375q1.296875 0 1.96875 0.640625q0.6875 0.640625 0.703125 1.875l0 4.265625q0 0.984375 0.265625 1.703125l0 0.125l-1.4375 0zm-1.84375 -1.109375q0.5 0 0.953125 -0.28125q0.46875 -0.28125 0.6875 -0.703125l0 -2.015625l-0.78125 0q-0.984375 0.015625 -1.5625 0.453125q-0.5625 0.421875 -0.5625 1.1875q0 0.71875 0.28125 1.046875q0.296875 0.3125 0.984375 0.3125zm7.4375 -1.0l1.59375 -6.34375l1.40625 0l-2.5 8.453125l-1.03125 0l-2.546875 -8.453125l1.40625 0l1.671875 6.34375zm4.0390625 -2.515625q0 -1.84375 0.890625 -2.90625q0.890625 -1.078125 2.359375 -1.078125q1.46875 0 2.359375 1.046875q0.90625 1.046875 0.921875 2.84375l0 0.890625q0 1.84375 -0.890625 2.921875q-0.890625 1.0625 -2.375 1.0625q-1.46875 0 -2.359375 -1.03125q-0.875 -1.046875 -0.90625 -2.828125l0 -0.921875zm1.375 0.796875q0 1.3125 0.515625 2.0625q0.515625 0.734375 1.375 0.734375q1.828125 0 1.890625 -2.640625l0 -0.953125q0 -1.296875 -0.515625 -2.046875q-0.515625 -0.75 -1.390625 -0.75q-0.84375 0 -1.359375 0.75q-0.515625 0.75 -0.515625 2.046875l0 0.796875zm10.4375 -3.328125q-0.296875 -0.0625 -0.625 -0.0625q-1.0625 0 -1.484375 1.171875l0 6.046875l-1.390625 0l0 -8.453125l1.34375 0l0.03125 0.859375q0.546875 -1.015625 1.5625 -1.015625q0.328125 0 0.546875 0.109375l0.015625 1.34375zm2.8671875 7.15625l-1.390625 0l0 -8.453125l1.390625 0l0 8.453125zm0.109375 -10.703125q0 0.359375 -0.203125 0.59375q-0.1875 0.234375 -0.59375 0.234375q-0.390625 0 -0.59375 -0.234375q-0.1875 -0.234375 -0.1875 -0.578125q0 -0.359375 0.1875 -0.59375q0.203125 -0.25 0.59375 -0.25q0.390625 0 0.59375 0.25q0.203125 0.234375 0.203125 0.578125z" fill-rule="nonzero"/><path fill="#d9d9d9" d="m649.5145 306.2859q-0.0625 1.828125 -0.78125 2.953125q-0.703125 1.125 -1.953125 1.125q-1.203125 0 -1.578125 -1.25q-0.359375 0.625 -0.796875 0.9375q-0.421875 0.3125 -0.875 0.3125q-0.953125 0 -1.4375 -0.90625q-0.46875 -0.921875 -0.34375 -2.515625q0.09375 -1.265625 0.5 -2.28125q0.40625 -1.03125 1.03125 -1.609375q0.625 -0.578125 1.296875 -0.578125q0.5625 0 0.984375 0.171875q0.4375 0.171875 0.96875 0.65625l-0.359375 4.328125q-0.125 1.8125 0.78125 1.8125q0.6875 0 1.125 -0.84375q0.453125 -0.84375 0.5 -2.3125q0.125 -3.0625 -0.9375 -4.640625q-1.0625 -1.59375 -3.1875 -1.59375q-1.3125 0 -2.296875 0.78125q-0.984375 0.78125 -1.546875 2.25q-0.5625 1.453125 -0.625 3.390625q-0.109375 2.953125 0.953125 4.625q1.078125 1.671875 3.09375 1.671875q0.609375 0 1.203125 -0.171875q0.59375 -0.171875 0.984375 -0.4375l0.25 0.890625q-0.40625 0.3125 -1.09375 0.5q-0.671875 0.203125 -1.359375 0.203125q-1.640625 0 -2.828125 -0.875q-1.171875 -0.875 -1.765625 -2.53125q-0.578125 -1.65625 -0.515625 -3.875q0.078125 -2.15625 0.796875 -3.875q0.734375 -1.71875 1.96875 -2.640625q1.25 -0.9375 2.8125 -0.9375q1.609375 0 2.78125 0.890625q1.1875 0.875 1.75 2.515625q0.578125 1.625 0.5 3.859375zm-6.59375 0.65625q-0.078125 1.109375 0.171875 1.703125q0.265625 0.59375 0.796875 0.59375q0.34375 0 0.65625 -0.375q0.328125 -0.375 0.53125 -1.078125l0.015625 -0.15625l0.3125 -3.96875q-0.34375 -0.1875 -0.703125 -0.1875q-0.71875 0 -1.203125 0.9375q-0.46875 0.9375 -0.578125 2.53125zm16.007812 -1.421875q0 2.328125 -1.0 3.59375q-0.984375 1.25 -2.8125 1.25q-1.75 0 -2.78125 -1.21875q-1.015625 -1.234375 -1.046875 -3.46875l0 -2.140625q0 -2.28125 1.0 -3.5625q1.015625 -1.296875 2.8125 -1.296875q1.796875 0 2.796875 1.234375q1.015625 1.234375 1.03125 3.53125l0 2.078125zm-1.421875 -2.0q0 -1.796875 -0.59375 -2.671875q-0.59375 -0.890625 -1.8125 -0.890625q-1.171875 0 -1.78125 0.890625q-0.609375 0.890625 -0.609375 2.625l0 2.046875q0 1.734375 0.59375 2.65625q0.609375 0.90625 1.8125 0.90625q1.203125 0 1.78125 -0.84375q0.578125 -0.84375 0.609375 -2.578125l0 -2.140625zm7.75 5.9375q-0.6875 0.90625 -2.0 0.90625q-1.15625 0 -1.75 -0.796875q-0.578125 -0.796875 -0.578125 -2.3125l0 -5.5l1.375 0l0 5.40625q0 1.96875 1.1875 1.96875q1.25 0 1.734375 -1.125l0 -6.25l1.375 0l0 8.453125l-1.3125 0l-0.03125 -0.75zm5.234375 -9.75l0 2.046875l1.28125 0l0 1.109375l-1.28125 0l0 5.25q0 0.5 0.15625 0.765625q0.171875 0.25 0.578125 0.25q0.265625 0 0.546875 -0.09375l-0.015625 1.171875q-0.46875 0.15625 -0.953125 0.15625q-0.828125 0 -1.265625 -0.578125q-0.421875 -0.59375 -0.421875 -1.671875l0 -5.25l-1.28125 0l0 -1.109375l1.28125 0l0 -2.046875l1.375 0zm9.0234375 6.671875q0 2.015625 -0.71875 3.0q-0.71875 0.984375 -2.046875 0.984375q-1.265625 0 -1.953125 -0.96875l0 4.0625l-1.375 0l0 -11.703125l1.25 0l0.0625 0.9375q0.703125 -1.09375 2.0 -1.09375q1.390625 0 2.078125 0.96875q0.6875 0.96875 0.703125 2.890625l0 0.921875zm-1.375 -0.78125q0 -1.421875 -0.4375 -2.09375q-0.4375 -0.6875 -1.40625 -0.6875q-0.984375 0 -1.5 1.0l0 4.390625q0.5 0.96875 1.515625 0.96875q0.9375 0 1.375 -0.671875q0.453125 -0.671875 0.453125 -2.0625l0 -0.84375zm7.46875 3.859375q-0.6875 0.90625 -2.0 0.90625q-1.15625 0 -1.75 -0.796875q-0.578125 -0.796875 -0.578125 -2.3125l0 -5.5l1.375 0l0 5.40625q0 1.96875 1.1875 1.96875q1.25 0 1.734375 -1.125l0 -6.25l1.375 0l0 8.453125l-1.3125 0l-0.03125 -0.75zm5.234375 -9.75l0 2.046875l1.28125 0l0 1.109375l-1.28125 0l0 5.25q0 0.5 0.15625 0.765625q0.171875 0.25 0.578125 0.25q0.265625 0 0.546875 -0.09375l-0.015625 1.171875q-0.46875 0.15625 -0.953125 0.15625q-0.828125 0 -1.265625 -0.578125q-0.421875 -0.59375 -0.421875 -1.671875l0 -5.25l-1.28125 0l0 -1.109375l1.28125 0l0 -2.046875l1.375 0z" fill-rule="nonzero"/><path fill="#ffffff" d="m674.158 131.51706l0 0c0 -6.9579163 5.640503 -12.598427 12.598389 -12.598427l7.8740234 0l0 0l30.70868 0l59.055115 0c3.3413086 0 6.5457764 1.3273315 8.908447 3.6899948c2.362671 2.3626633 3.6900024 5.5671234 3.6900024 8.908432l0 31.496063l0 0l0 18.897644l0 0c0 6.9579163 -5.640503 12.598419 -12.59845 12.598419l-59.055115 0l-13.19574 25.207932l-17.51294 -25.207932l-7.8740234 0c-6.9578857 0 -12.598389 -5.640503 -12.598389 -12.598419l0 0l0 -18.897644l0 0z" fill-rule="evenodd"/><path stroke="#d9d9d9" stroke-width="1.0" stroke-linejoin="round" stroke-linecap="butt" d="m674.158 131.51706l0 0c0 -6.9579163 5.640503 -12.598427 12.598389 -12.598427l7.8740234 0l0 0l30.70868 0l59.055115 0c3.3413086 0 6.5457764 1.3273315 8.908447 3.6899948c2.362671 2.3626633 3.6900024 5.5671234 3.6900024 8.908432l0 31.496063l0 0l0 18.897644l0 0c0 6.9579163 -5.640503 12.598419 -12.59845 12.598419l-59.055115 0l-13.19574 25.207932l-17.51294 -25.207932l-7.8740234 0c-6.9578857 0 -12.598389 -5.640503 -12.598389 -12.598419l0 0l0 -18.897644l0 0z" fill-rule="evenodd"/><path fill="#d9d9d9" d="m693.3253 138.71454q-0.828125 1.046875 -1.9375 1.046875q-1.25 0 -1.984375 -1.046875q-0.734375 -1.046875 -0.734375 -2.734375q0 -1.78125 0.796875 -2.859375q0.8125 -1.078125 2.1875 -1.078125q1.4375 0 2.25 1.25q0.8125 1.234375 0.8125 3.4375l0 0.4375q0 1.890625 -0.296875 3.0625q-0.28125 1.171875 -0.84375 1.890625q-0.546875 0.71875 -1.40625 1.09375q-0.859375 0.375 -2.140625 0.375l0 -1.234375l0.234375 0q1.46875 -0.03125 2.234375 -0.890625q0.765625 -0.859375 0.828125 -2.75zm-1.703125 -0.140625q0.5 0 0.96875 -0.421875q0.484375 -0.421875 0.75 -1.09375l0 -0.609375q0 -1.421875 -0.5 -2.3125q-0.484375 -0.890625 -1.1875 -0.890625q-0.75 0 -1.1875 0.734375q-0.4375 0.734375 -0.4375 1.921875q0 1.171875 0.421875 1.921875q0.4375 0.75 1.171875 0.75zm11.390625 0.75l-3.21875 0l0 -1.171875l3.21875 0l0 1.171875zm6.7578125 4.25l-1.421875 0l0 -11.375l1.421875 0l0 11.375zm5.25 -1.03125q0.6875 0 1.09375 -0.421875q0.421875 -0.421875 0.46875 -1.21875l1.296875 0q-0.046875 1.21875 -0.859375 2.03125q-0.8125 0.796875 -2.0 0.796875q-1.5625 0 -2.390625 -0.984375q-0.828125 -1.0 -0.828125 -2.953125l0 -0.921875q0 -1.921875 0.8125 -2.90625q0.828125 -1.0 2.40625 -1.0q1.296875 0 2.046875 0.828125q0.765625 0.8125 0.8125 2.234375l-1.296875 0q-0.046875 -0.9375 -0.453125 -1.40625q-0.40625 -0.46875 -1.109375 -0.46875q-0.921875 0 -1.375 0.609375q-0.4375 0.59375 -0.453125 1.984375l0 1.078125q0 1.484375 0.4375 2.109375q0.4375 0.609375 1.390625 0.609375zm4.171875 -3.59375q0 -1.84375 0.890625 -2.90625q0.890625 -1.078125 2.359375 -1.078125q1.46875 0 2.359375 1.046875q0.90625 1.046875 0.921875 2.84375l0 0.890625q0 1.84375 -0.890625 2.921875q-0.890625 1.0625 -2.375 1.0625q-1.46875 0 -2.359375 -1.03125q-0.875 -1.046875 -0.90625 -2.828125l0 -0.921875zm1.375 0.796875q0 1.3125 0.515625 2.0625q0.515625 0.734375 1.375 0.734375q1.828125 0 1.890625 -2.640625l0 -0.953125q0 -1.296875 -0.515625 -2.046875q-0.515625 -0.75 -1.390625 -0.75q-0.84375 0 -1.359375 0.75q-0.515625 0.75 -0.515625 2.046875l0 0.796875zm8.25 -4.625l0.03125 0.90625q0.8125 -1.0625 2.0625 -1.0625q2.234375 0 2.265625 2.984375l0 5.625l-1.375 0l0 -5.5625q0 -0.984375 -0.328125 -1.40625q-0.328125 -0.421875 -1.0 -0.421875q-0.515625 0 -0.921875 0.34375q-0.40625 0.34375 -0.65625 0.90625l0 6.140625l-1.390625 0l0 -8.453125l1.3125 0zm14.203125 6.28125q0 -0.4375 -0.34375 -0.75q-0.328125 -0.328125 -1.28125 -0.765625q-1.125 -0.453125 -1.578125 -0.78125q-0.453125 -0.328125 -0.6875 -0.75q-0.21875 -0.421875 -0.21875 -1.0q0 -1.03125 0.75 -1.703125q0.75 -0.6875 1.921875 -0.6875q1.234375 0 1.984375 0.71875q0.75 0.71875 0.75 1.84375l-1.375 0q0 -0.578125 -0.390625 -0.96875q-0.375 -0.40625 -0.96875 -0.40625q-0.609375 0 -0.953125 0.3125q-0.34375 0.3125 -0.34375 0.84375q0 0.421875 0.25 0.6875q0.25 0.25 1.21875 0.671875q1.546875 0.609375 2.09375 1.1875q0.5625 0.5625 0.5625 1.453125q0 1.09375 -0.765625 1.765625q-0.75 0.65625 -2.03125 0.65625q-1.3125 0 -2.140625 -0.75q-0.8125 -0.765625 -0.8125 -1.9375l1.390625 0q0.015625 0.703125 0.421875 1.109375q0.40625 0.390625 1.140625 0.390625q0.6875 0 1.046875 -0.296875q0.359375 -0.3125 0.359375 -0.84375zm2.8984375 -2.453125q0 -1.84375 0.890625 -2.90625q0.890625 -1.078125 2.359375 -1.078125q1.46875 0 2.359375 1.046875q0.90625 1.046875 0.921875 2.84375l0 0.890625q0 1.84375 -0.890625 2.921875q-0.890625 1.0625 -2.375 1.0625q-1.46875 0 -2.359375 -1.03125q-0.875 -1.046875 -0.90625 -2.828125l0 -0.921875zm1.375 0.796875q0 1.3125 0.515625 2.0625q0.515625 0.734375 1.375 0.734375q1.828125 0 1.890625 -2.640625l0 -0.953125q0 -1.296875 -0.515625 -2.046875q-0.515625 -0.75 -1.390625 -0.75q-0.84375 0 -1.359375 0.75q-0.515625 0.75 -0.515625 2.046875l0 0.796875zm8.4375 3.828125l-1.390625 0l0 -12.0l1.390625 0l0 12.0zm5.1953125 0.15625q-1.578125 0 -2.421875 -0.9375q-0.84375 -0.953125 -0.859375 -2.765625l0 -1.03125q0 -1.890625 0.8125 -2.953125q0.828125 -1.078125 2.3125 -1.078125q1.484375 0 2.21875 0.953125q0.734375 0.9375 0.75 2.9375l0 0.90625l-4.71875 0l0 0.1875q0 1.359375 0.5 1.984375q0.515625 0.609375 1.484375 0.609375q0.609375 0 1.0625 -0.21875q0.46875 -0.234375 0.875 -0.734375l0.71875 0.875q-0.890625 1.265625 -2.734375 1.265625zm-0.15625 -7.578125q-0.859375 0 -1.28125 0.59375q-0.40625 0.578125 -0.46875 1.828125l3.328125 0l0 -0.1875q-0.046875 -1.203125 -0.4375 -1.71875q-0.375 -0.515625 -1.140625 -0.515625zm6.1171875 7.421875l-1.390625 0l0 -8.453125l1.390625 0l0 8.453125zm0.109375 -10.703125q0 0.359375 -0.203125 0.59375q-0.1875 0.234375 -0.59375 0.234375q-0.390625 0 -0.59375 -0.234375q-0.1875 -0.234375 -0.1875 -0.578125q0 -0.359375 0.1875 -0.59375q0.203125 -0.25 0.59375 -0.25q0.390625 0 0.59375 0.25q0.203125 0.234375 0.203125 0.578125zm3.5546875 10.703125l-1.390625 0l0 -12.0l1.390625 0l0 12.0zm9.453125 -6.109375l2.578125 0l0 1.375l-2.578125 0l0 3.59375l-1.390625 0l0 -3.59375l-2.59375 0l0 -1.375l2.59375 0l0 -3.3125l1.390625 0l0 3.3125z" fill-rule="nonzero"/><path fill="#d9d9d9" d="m704.1417 161.54266q0.6875 0 1.09375 -0.421875q0.421875 -0.421875 0.46875 -1.21875l1.296875 0q-0.046875 1.21875 -0.859375 2.03125q-0.8125 0.796875 -2.0 0.796875q-1.5625 0 -2.390625 -0.984375q-0.828125 -1.0 -0.828125 -2.953125l0 -0.921875q0 -1.921875 0.8125 -2.90625q0.828125 -1.0 2.40625 -1.0q1.296875 0 2.046875 0.828125q0.765625 0.8125 0.8125 2.234375l-1.296875 0q-0.046875 -0.9375 -0.453125 -1.40625q-0.40625 -0.46875 -1.109375 -0.46875q-0.921875 0 -1.375 0.609375q-0.4375 0.59375 -0.453125 1.984375l0 1.078125q0 1.484375 0.4375 2.109375q0.4375 0.609375 1.390625 0.609375zm4.171875 -3.59375q0 -1.84375 0.890625 -2.90625q0.890625 -1.078125 2.359375 -1.078125q1.46875 0 2.359375 1.046875q0.90625 1.046875 0.921875 2.84375l0 0.890625q0 1.84375 -0.890625 2.921875q-0.890625 1.0625 -2.375 1.0625q-1.46875 0 -2.359375 -1.03125q-0.875 -1.046875 -0.90625 -2.828125l0 -0.921875zm1.375 0.796875q0 1.3125 0.515625 2.0625q0.515625 0.734375 1.375 0.734375q1.828125 0 1.890625 -2.640625l0 -0.953125q0 -1.296875 -0.515625 -2.046875q-0.515625 -0.75 -1.390625 -0.75q-0.84375 0 -1.359375 0.75q-0.515625 0.75 -0.515625 2.046875l0 0.796875zm8.25 -4.625l0.03125 0.78125q0.765625 -0.9375 2.03125 -0.9375q1.421875 0 1.984375 1.21875q0.796875 -1.21875 2.21875 -1.21875q2.328125 0 2.390625 2.90625l0 5.703125l-1.375 0l0 -5.5625q0 -0.921875 -0.328125 -1.375q-0.328125 -0.453125 -1.109375 -0.453125q-0.625 0 -1.015625 0.484375q-0.390625 0.484375 -0.453125 1.234375l0 5.671875l-1.390625 0l0 -5.625q-0.03125 -1.765625 -1.4375 -1.765625q-1.046875 0 -1.46875 1.046875l0 6.34375l-1.375 0l0 -8.453125l1.296875 0zm16.835938 4.625q0 2.015625 -0.71875 3.0q-0.71875 0.984375 -2.046875 0.984375q-1.265625 0 -1.953125 -0.96875l0 4.0625l-1.375 0l0 -11.703125l1.25 0l0.0625 0.9375q0.703125 -1.09375 2.0 -1.09375q1.390625 0 2.078125 0.96875q0.6875 0.96875 0.703125 2.890625l0 0.921875zm-1.375 -0.78125q0 -1.421875 -0.4375 -2.09375q-0.4375 -0.6875 -1.40625 -0.6875q-0.984375 0 -1.5 1.0l0 4.390625q0.5 0.96875 1.515625 0.96875q0.9375 0 1.375 -0.671875q0.453125 -0.671875 0.453125 -2.0625l0 -0.84375zm2.875 -0.015625q0 -1.84375 0.890625 -2.90625q0.890625 -1.078125 2.359375 -1.078125q1.46875 0 2.359375 1.046875q0.90625 1.046875 0.921875 2.84375l0 0.890625q0 1.84375 -0.890625 2.921875q-0.890625 1.0625 -2.375 1.0625q-1.46875 0 -2.359375 -1.03125q-0.875 -1.046875 -0.90625 -2.828125l0 -0.921875zm1.375 0.796875q0 1.3125 0.515625 2.0625q0.515625 0.734375 1.375 0.734375q1.828125 0 1.890625 -2.640625l0 -0.953125q0 -1.296875 -0.515625 -2.046875q-0.515625 -0.75 -1.390625 -0.75q-0.84375 0 -1.359375 0.75q-0.515625 0.75 -0.515625 2.046875l0 0.796875zm11.046875 1.65625q0 -0.4375 -0.34375 -0.75q-0.328125 -0.328125 -1.28125 -0.765625q-1.125 -0.453125 -1.578125 -0.78125q-0.453125 -0.328125 -0.6875 -0.75q-0.21875 -0.421875 -0.21875 -1.0q0 -1.03125 0.75 -1.703125q0.75 -0.6875 1.921875 -0.6875q1.234375 0 1.984375 0.71875q0.75 0.71875 0.75 1.84375l-1.375 0q0 -0.578125 -0.390625 -0.96875q-0.375 -0.40625 -0.96875 -0.40625q-0.609375 0 -0.953125 0.3125q-0.34375 0.3125 -0.34375 0.84375q0 0.421875 0.25 0.6875q0.25 0.25 1.21875 0.671875q1.546875 0.609375 2.09375 1.1875q0.5625 0.5625 0.5625 1.453125q0 1.09375 -0.765625 1.765625q-0.75 0.65625 -2.03125 0.65625q-1.3125 0 -2.140625 -0.75q-0.8125 -0.765625 -0.8125 -1.9375l1.390625 0q0.015625 0.703125 0.421875 1.109375q0.40625 0.390625 1.140625 0.390625q0.6875 0 1.046875 -0.296875q0.359375 -0.3125 0.359375 -0.84375zm7.5390625 2.171875q-0.125 -0.28125 -0.1875 -0.921875q-0.734375 1.078125 -1.875 1.078125q-1.140625 0 -1.796875 -0.640625q-0.640625 -0.65625 -0.640625 -1.828125q0 -1.28125 0.875 -2.03125q0.875 -0.765625 2.40625 -0.78125l1.015625 0l0 -0.90625q0 -0.75 -0.34375 -1.0625q-0.328125 -0.328125 -1.015625 -0.328125q-0.625 0 -1.015625 0.375q-0.390625 0.359375 -0.390625 0.9375l-1.390625 0q0 -0.65625 0.375 -1.234375q0.390625 -0.59375 1.03125 -0.921875q0.65625 -0.34375 1.453125 -0.34375q1.296875 0 1.96875 0.640625q0.6875 0.640625 0.703125 1.875l0 4.265625q0 0.984375 0.265625 1.703125l0 0.125l-1.4375 0zm-1.84375 -1.109375q0.5 0 0.953125 -0.28125q0.46875 -0.28125 0.6875 -0.703125l0 -2.015625l-0.78125 0q-0.984375 0.015625 -1.5625 0.453125q-0.5625 0.421875 -0.5625 1.1875q0 0.71875 0.28125 1.046875q0.296875 0.3125 0.984375 0.3125zm6.4609375 -7.34375l0.03125 0.90625q0.8125 -1.0625 2.0625 -1.0625q2.234375 0 2.265625 2.984375l0 5.625l-1.375 0l0 -5.5625q0 -0.984375 -0.328125 -1.40625q-0.328125 -0.421875 -1.0 -0.421875q-0.515625 0 -0.921875 0.34375q-0.40625 0.34375 -0.65625 0.90625l0 6.140625l-1.390625 0l0 -8.453125l1.3125 0zm8.2421875 -2.046875l0 2.046875l1.28125 0l0 1.109375l-1.28125 0l0 5.25q0 0.5 0.15625 0.765625q0.171875 0.25 0.578125 0.25q0.265625 0 0.546875 -0.09375l-0.015625 1.171875q-0.46875 0.15625 -0.953125 0.15625q-0.828125 0 -1.265625 -0.578125q-0.421875 -0.59375 -0.421875 -1.671875l0 -5.25l-1.28125 0l0 -1.109375l1.28125 0l0 -2.046875l1.375 0z" fill-rule="nonzero"/><path fill="#d9d9d9" d="m723.8136 179.40204q0 -0.4375 -0.34375 -0.75q-0.328125 -0.328125 -1.28125 -0.765625q-1.125 -0.453125 -1.578125 -0.78125q-0.453125 -0.328125 -0.6875 -0.75q-0.21875 -0.421875 -0.21875 -1.0q0 -1.03125 0.75 -1.703125q0.75 -0.6875 1.921875 -0.6875q1.234375 0 1.984375 0.71875q0.75 0.71875 0.75 1.84375l-1.375 0q0 -0.578125 -0.390625 -0.96875q-0.375 -0.40625 -0.96875 -0.40625q-0.609375 0 -0.953125 0.3125q-0.34375 0.3125 -0.34375 0.84375q0 0.421875 0.25 0.6875q0.25 0.25 1.21875 0.671875q1.546875 0.609375 2.09375 1.1875q0.5625 0.5625 0.5625 1.453125q0 1.09375 -0.765625 1.765625q-0.75 0.65625 -2.03125 0.65625q-1.3125 0 -2.140625 -0.75q-0.8125 -0.765625 -0.8125 -1.9375l1.390625 0q0.015625 0.703125 0.421875 1.109375q0.40625 0.390625 1.140625 0.390625q0.6875 0 1.046875 -0.296875q0.359375 -0.3125 0.359375 -0.84375zm2.8984375 -2.453125q0 -1.84375 0.890625 -2.90625q0.890625 -1.078125 2.359375 -1.078125q1.46875 0 2.359375 1.046875q0.90625 1.046875 0.921875 2.84375l0 0.890625q0 1.84375 -0.890625 2.921875q-0.890625 1.0625 -2.375 1.0625q-1.46875 0 -2.359375 -1.03125q-0.875 -1.046875 -0.90625 -2.828125l0 -0.921875zm1.375 0.796875q0 1.3125 0.515625 2.0625q0.515625 0.734375 1.375 0.734375q1.828125 0 1.890625 -2.640625l0 -0.953125q0 -1.296875 -0.515625 -2.046875q-0.515625 -0.75 -1.390625 -0.75q-0.84375 0 -1.359375 0.75q-0.515625 0.75 -0.515625 2.046875l0 0.796875zm8.4375 3.828125l-1.390625 0l0 -12.0l1.390625 0l0 12.0zm5.1953125 0.15625q-1.578125 0 -2.421875 -0.9375q-0.84375 -0.953125 -0.859375 -2.765625l0 -1.03125q0 -1.890625 0.8125 -2.953125q0.828125 -1.078125 2.3125 -1.078125q1.484375 0 2.21875 0.953125q0.734375 0.9375 0.75 2.9375l0 0.90625l-4.71875 0l0 0.1875q0 1.359375 0.5 1.984375q0.515625 0.609375 1.484375 0.609375q0.609375 0 1.0625 -0.21875q0.46875 -0.234375 0.875 -0.734375l0.71875 0.875q-0.890625 1.265625 -2.734375 1.265625zm-0.15625 -7.578125q-0.859375 0 -1.28125 0.59375q-0.40625 0.578125 -0.46875 1.828125l3.328125 0l0 -0.1875q-0.046875 -1.203125 -0.4375 -1.71875q-0.375 -0.515625 -1.140625 -0.515625zm6.1171875 7.421875l-1.390625 0l0 -8.453125l1.390625 0l0 8.453125zm0.109375 -10.703125q0 0.359375 -0.203125 0.59375q-0.1875 0.234375 -0.59375 0.234375q-0.390625 0 -0.59375 -0.234375q-0.1875 -0.234375 -0.1875 -0.578125q0 -0.359375 0.1875 -0.59375q0.203125 -0.25 0.59375 -0.25q0.390625 0 0.59375 0.25q0.203125 0.234375 0.203125 0.578125zm3.5546875 10.703125l-1.390625 0l0 -12.0l1.390625 0l0 12.0z" fill-rule="nonzero"/></g></svg>